<svg width="14" height="15" viewBox="0 0 14 15" fill="none" xmlns="http://www.w3.org/2000/svg">
<path fill-rule="evenodd" clip-rule="evenodd" d="M10.3846 3.75C10.3846 5.959 8.5699 7.875 6.74999 7.875C4.93009 7.875 3.11538 5.959 3.11538 3.75C3.11538 1.541 4.15592 0 6.74999 0C9.34407 0 10.3846 1.541 10.3846 3.75ZM6.75 15C3.76339 15.0017 0.74448 14.3296 0.521211 14C0.0770184 13.3444 0 12.7549 0 12.0053V11.5045C0 9.84517 1.3948 8.5 3.11538 8.5H3.2753C3.8106 8.49995 4.33689 8.63292 4.8034 8.88608C5.5594 9.2962 6.20792 9.5015 6.74999 9.5015C7.29207 9.5015 7.94059 9.2967 8.69659 8.88608C9.1631 8.63292 9.68938 8.49995 10.2247 8.5H10.3846C12.1052 8.5 13.5 9.84517 13.5 11.5045V12.0053C13.5011 12.7274 13.4291 13.3444 12.9821 14C12.7597 14.3261 9.70524 14.9983 6.75 15Z" fill="white"/>
</svg>