<?xml version="1.0" encoding="utf-8"?>
<!-- Generator: Adobe Illustrator 23.0.1, SVG Export Plug-In . SVG Version: 6.00 Build 0)  -->
<svg version="1.1" id="Слой_1" xmlns="http://www.w3.org/2000/svg" xmlns:xlink="http://www.w3.org/1999/xlink" x="0px" y="0px"
	 viewBox="0 0 16 16" style="enable-background:new 0 0 16 16;" xml:space="preserve">
<style type="text/css">
	.st0{fill:#AF4F4A;}
</style>
<path class="st0" d="M0,8c0,4.43,3.57,8,8,8s8-3.57,8-8s-3.57-8-8-8S0,3.57,0,8z M2.77,8c0-2.77,2.13-5.01,4.85-5.23v2.77
	c-1.17,0.16-2.08,1.17-2.08,2.4c0,1.33,1.07,2.45,2.45,2.45s2.45-1.07,2.45-2.45c0-1.23-0.91-2.24-2.08-2.4V2.77
	c2.72,0.16,4.85,2.45,4.85,5.23c0,2.88-2.35,5.23-5.23,5.23S2.77,10.88,2.77,8z M6.93,1.39C6.93,0.8,7.41,0.32,8,0.32
	S9.07,0.8,9.07,1.39S8.59,2.45,8,2.45S6.93,1.97,6.93,1.39z"/>
</svg>
