<svg width="60" height="60" viewBox="0 0 60 60" fill="none" xmlns="http://www.w3.org/2000/svg">
    <path d="M59.1088 15.0169C59.6015 15.0169 60 14.6191 60 14.1284V7.16858C60 4.75754 58.0331 2.79648 55.6153 2.79648H50.3767V2.61017C50.3767 1.17096 49.2023 0 47.7588 0H38.8559C37.4124 0 36.2379 1.17096 36.2379 2.61017V2.79648H29.6922C27.2739 2.79648 25.307 4.758 25.307 7.16858V15.6853H4.28181C1.92098 15.6853 0 17.6006 0 19.9544V55.7309C0 58.0847 1.92098 60 4.28181 60H7.30699C7.79918 60 8.19816 59.6022 8.19816 59.1115C8.19816 58.6208 7.79918 58.223 7.30699 58.223H4.28181C2.90351 58.223 1.78233 57.1051 1.78233 55.7309V19.9544C1.78233 18.5802 2.90351 17.4623 4.28181 17.4623H25.307V19.2389H4.45536C3.96318 19.2389 3.5642 19.6367 3.5642 20.1274V28.9146C3.5642 29.4054 3.96318 29.8032 4.45536 29.8032H25.307V31.772H4.45536C3.96318 31.772 3.5642 32.1698 3.5642 32.6605V55.6535C3.5642 56.1443 3.96318 56.5421 4.45536 56.5421H28.4107C28.9029 56.5421 29.3014 56.1443 29.3014 55.6535V43.0866C29.4305 43.098 29.5604 43.1049 29.6922 43.1049H31.0838V55.7309C31.0838 57.1051 29.9626 58.223 28.5838 58.223H10.2771C9.7849 58.223 9.38638 58.6208 9.38638 59.1115C9.38638 59.6022 9.7849 60 10.2771 60H28.5838C30.9451 60 32.8661 58.0847 32.8661 55.7309V43.1049H55.6153C58.0331 43.1049 60 41.1438 60 38.7332V17.0902C60 16.5994 59.6015 16.2016 59.1088 16.2016C58.6167 16.2016 58.2181 16.5994 58.2181 17.0902V38.7332C58.2181 40.1637 57.0506 41.3283 55.6153 41.3283H29.6922C28.2569 41.3283 27.0894 40.1637 27.0894 38.7332V7.16858C27.0894 5.73761 28.2569 4.57352 29.6922 4.57352H36.2379V6.35056H29.7624C29.2702 6.35056 28.8717 6.74835 28.8717 7.23908V38.6627C28.8717 39.1534 29.2702 39.5512 29.7624 39.5512H55.5446C56.0368 39.5512 56.4358 39.1534 56.4358 38.6627V7.23908C56.4358 6.74835 56.0368 6.35056 55.5446 6.35056H50.3767V4.57352H55.6153C57.0506 4.57352 58.2181 5.73761 58.2181 7.16858V14.1284C58.2181 14.6191 58.6167 15.0169 59.1088 15.0169ZM5.34653 28.0266V21.0159H25.307V28.0266H5.34653ZM25.4002 39.6295H21.483V33.549H25.307V38.7332C25.307 39.0404 25.3396 39.3402 25.4002 39.6295ZM13.1641 54.765V48.6845H19.7006V54.765H13.1641ZM13.1641 46.908V41.4066H19.7006V46.908H13.1641ZM5.34653 41.4066H11.3822V46.908H5.34653V41.4066ZM13.1641 39.6295V33.549H19.7006V39.6295H13.1641ZM11.3822 33.549V39.6295H5.34653V33.549H11.3822ZM5.34653 48.6845H11.3822V54.765H5.34653V48.6845ZM21.483 54.765V48.6845H27.5196V54.765H21.483ZM27.5196 46.908H21.483V41.4066H26.2262C26.5784 41.8597 27.0177 42.2415 27.5191 42.5281V46.908H27.5196ZM38.0202 2.61017C38.0202 2.15057 38.3949 1.77704 38.8559 1.77704H47.7588C48.2197 1.77704 48.5944 2.15057 48.5944 2.61017V2.79648H38.0202V2.61017ZM54.6535 8.12714V37.7742H30.6536V8.12714H36.2379V8.20175C36.2379 9.64096 37.4124 10.8119 38.8559 10.8119H47.7588C49.2023 10.8119 50.3767 9.64096 50.3767 8.20175V8.12714H54.6535ZM38.0202 8.12714H48.5944V8.20175C48.5944 8.66089 48.2197 9.03488 47.7588 9.03488H38.8559C38.3949 9.03488 38.0202 8.66089 38.0202 8.20175V8.12714ZM48.5944 6.35056H38.0202V4.57352H48.5944V6.35056Z" fill="url(#paint0_linear)"/>
    <path d="M40.9073 12.6707C40.4642 12.456 39.9312 12.6401 39.7163 13.0814L36.3064 20.0746L34.7619 17.3028C34.5231 16.8739 33.9805 16.7192 33.5503 16.9577C33.12 17.1962 32.9649 17.7368 33.2041 18.1657L35.5801 22.4303C35.7375 22.7127 36.0364 22.8871 36.3592 22.8871H36.3835C36.7159 22.878 37.0153 22.6852 37.1608 22.3872L41.3191 13.8582C41.534 13.4169 41.3499 12.8854 40.9073 12.6707Z" fill="url(#paint1_linear)"/>
    <path d="M51.6243 19.0449H43.7829C43.2902 19.0449 42.8917 19.4427 42.8917 19.9334C42.8917 20.4242 43.2902 20.822 43.7829 20.822H51.6243C52.1165 20.822 52.5155 20.4242 52.5155 19.9334C52.5155 19.4427 52.1165 19.0449 51.6243 19.0449Z" fill="url(#paint2_linear)"/>
    <path d="M42.8917 16.1424C42.8917 16.6331 43.2902 17.0309 43.7829 17.0309H51.6243C52.1165 17.0309 52.5155 16.6331 52.5155 16.1424C52.5155 15.6517 52.1165 15.2539 51.6243 15.2539H43.7829C43.2902 15.2539 42.8917 15.6517 42.8917 16.1424Z" fill="url(#paint3_linear)"/>
    <path d="M40.9073 23.8611C40.4642 23.6464 39.9312 23.8309 39.7163 24.2717L36.3064 31.2654L34.7619 28.4932C34.5231 28.0643 33.9805 27.91 33.5503 28.148C33.12 28.3865 32.9649 28.9276 33.2041 29.3561L35.5801 33.6206C35.7375 33.9035 36.0364 34.0779 36.3592 34.0779C36.3675 34.0779 36.3753 34.0779 36.3835 34.0775C36.7159 34.0683 37.0153 33.876 37.1608 33.578L41.3191 25.0485C41.534 24.6072 41.3499 24.0758 40.9073 23.8611Z" fill="url(#paint4_linear)"/>
    <path d="M51.6243 30.2344H43.7829C43.2902 30.2344 42.8917 30.6322 42.8917 31.1229C42.8917 31.6136 43.2902 32.0114 43.7829 32.0114H51.6243C52.1165 32.0114 52.5155 31.6136 52.5155 31.1229C52.5155 30.6322 52.1165 30.2344 51.6243 30.2344Z" fill="url(#paint5_linear)"/>
    <path d="M51.6243 26.4443H43.7829C43.2902 26.4443 42.8917 26.8421 42.8917 27.3329C42.8917 27.8236 43.2902 28.2214 43.7829 28.2214H51.6243C52.1165 28.2214 52.5155 27.8236 52.5155 27.3329C52.5155 26.8421 52.1165 26.4443 51.6243 26.4443Z" fill="url(#paint6_linear)"/>
    <defs>
        <linearGradient id="paint0_linear" x1="30" y1="0" x2="30" y2="60" gradientUnits="userSpaceOnUse">
            <stop stop-color="#97C11F"/>
            <stop offset="1" stop-color="#689616"/>
        </linearGradient>
        <linearGradient id="paint1_linear" x1="37.2503" y1="12.5811" x2="37.2503" y2="22.8871" gradientUnits="userSpaceOnUse">
            <stop stop-color="#97C11F"/>
            <stop offset="1" stop-color="#689616"/>
        </linearGradient>
        <linearGradient id="paint2_linear" x1="47.7036" y1="19.0449" x2="47.7036" y2="20.822" gradientUnits="userSpaceOnUse">
            <stop stop-color="#97C11F"/>
            <stop offset="1" stop-color="#689616"/>
        </linearGradient>
        <linearGradient id="paint3_linear" x1="47.7036" y1="15.2539" x2="47.7036" y2="17.0309" gradientUnits="userSpaceOnUse">
            <stop stop-color="#97C11F"/>
            <stop offset="1" stop-color="#689616"/>
        </linearGradient>
        <linearGradient id="paint4_linear" x1="37.2503" y1="23.7715" x2="37.2503" y2="34.0779" gradientUnits="userSpaceOnUse">
            <stop stop-color="#97C11F"/>
            <stop offset="1" stop-color="#689616"/>
        </linearGradient>
        <linearGradient id="paint5_linear" x1="47.7036" y1="30.2344" x2="47.7036" y2="32.0114" gradientUnits="userSpaceOnUse">
            <stop stop-color="#97C11F"/>
            <stop offset="1" stop-color="#689616"/>
        </linearGradient>
        <linearGradient id="paint6_linear" x1="47.7036" y1="26.4443" x2="47.7036" y2="28.2214" gradientUnits="userSpaceOnUse">
            <stop stop-color="#97C11F"/>
            <stop offset="1" stop-color="#689616"/>
        </linearGradient>
    </defs>
</svg>
