<svg width="60" height="60" viewBox="0 0 60 60" fill="none" xmlns="http://www.w3.org/2000/svg">
    <path d="M57.387 12.9091L55.9324 12.4546C55.5688 12.3636 55.2051 12.2727 54.7507 12.2727C53.1143 12.2727 51.6597 13.3636 51.1143 14.9091L50.2961 17.3636V15.5453V15.4546C50.2961 15.1818 50.1143 14.9091 49.9325 14.7272L35.0234 0.272749C34.8416 0.0909162 34.5688 0 34.387 0H5.20518C4.65968 0 4.29614 0.363665 4.29614 0.909041V3.7272H0.932479C0.386982 3.7272 0.0234375 4.09087 0.0234375 4.63624V59.0908C0.0234375 59.6363 0.387102 59.9999 0.932479 59.9999H45.1143C45.6598 59.9999 46.0233 59.6362 46.0233 59.0908V56.2727H49.387C49.9325 56.2727 50.296 55.909 50.296 55.3636V43.0909L52.8414 39.6363L52.9323 39.3636L59.7506 17.6363C60.4779 15.6364 59.387 13.5454 57.387 12.9091ZM35.296 3.09091L47.2051 14.5455H35.296V3.09091ZM44.2052 58.1818H1.84152V5.54541H4.29602V55.3636C4.29602 55.9091 4.65968 56.2727 5.20506 56.2727H44.2051V58.1818H44.2052ZM48.5688 54.4546H48.4779H6.11422V1.8182H33.4778V15.4546C33.4778 16 33.8415 16.3636 34.3869 16.3636H48.5687V23.1818L44.296 36.6363V36.9091L44.4779 48.4546C44.4779 48.8183 44.7506 49.1819 45.1143 49.2727C45.4779 49.3636 45.9324 49.2727 46.1142 48.9091L48.5687 45.6363V54.4546H48.5688ZM46.2051 45.6363L46.0233 38.0909L50.5688 39.5454L46.2051 45.6363ZM58.1143 17.0909L51.5688 37.9092L46.2961 36.1819L52.8415 15.4546C53.2052 14.4546 54.2961 13.8182 55.296 14.1818L56.7506 14.6364C57.8416 14.9091 58.4779 16.091 58.1143 17.0909Z" fill="url(#paint0_linear)"/>
    <path d="M12.2961 16.3633H25.3871C25.9326 16.3633 26.2961 15.9996 26.2961 15.4542V6.1815C26.2961 5.636 25.9325 5.27246 25.3871 5.27246H12.2961C11.7506 5.27246 11.3871 5.63613 11.3871 6.1815V15.4542C11.3871 15.9088 11.8417 16.3633 12.2961 16.3633ZM13.2053 7.09054H24.478V14.5451H13.2053V7.09054Z" fill="url(#paint1_linear)"/>
    <path d="M10.478 24.9089H38.1144C38.6599 24.9089 39.0234 24.5452 39.0234 23.9999C39.0234 23.4544 38.6597 23.0908 38.1144 23.0908H10.478C9.93251 23.0908 9.56897 23.4545 9.56897 23.9999C9.56885 24.5452 9.93251 24.9089 10.478 24.9089Z" fill="url(#paint2_linear)"/>
    <path d="M10.478 31.5456H38.1144C38.6599 31.5456 39.0234 31.1819 39.0234 30.6366C39.0234 30.0912 38.6597 29.7275 38.1144 29.7275H10.478C9.93251 29.7275 9.56897 30.0912 9.56897 30.6366C9.56897 31.1819 9.93251 31.5456 10.478 31.5456Z" fill="url(#paint3_linear)"/>
    <path d="M10.478 38.1814H38.1144C38.6599 38.1814 39.0234 37.8177 39.0234 37.2723C39.0234 36.7269 38.6597 36.3633 38.1144 36.3633H10.478C9.93251 36.3633 9.56897 36.7269 9.56897 37.2723C9.56897 37.8177 9.93251 38.1814 10.478 38.1814Z" fill="url(#paint4_linear)"/>
    <path d="M38.9325 43.909C38.9325 43.3635 38.5688 43 38.0235 43H10.478C9.93251 43 9.56897 43.3637 9.56897 43.909C9.56897 44.4544 9.93263 44.8181 10.478 44.8181H38.1144C38.5688 44.8181 38.9325 44.3635 38.9325 43.909Z" fill="url(#paint5_linear)"/>
    <path d="M41.9325 49.6367H28.2052C27.6597 49.6367 27.2961 50.0004 27.2961 50.5458C27.2961 51.0911 27.6598 51.4548 28.2052 51.4548H41.8415C42.387 51.4548 42.7506 51.0911 42.7506 50.5458C42.7506 50.0004 42.387 49.6367 41.9325 49.6367Z" fill="url(#paint6_linear)"/>
    <defs>
        <linearGradient id="paint0_linear" x1="30" y1="0" x2="30" y2="59.9999" gradientUnits="userSpaceOnUse">
            <stop stop-color="#97C11F"/>
            <stop offset="1" stop-color="#689616"/>
        </linearGradient>
        <linearGradient id="paint1_linear" x1="18.8416" y1="5.27246" x2="18.8416" y2="16.3633" gradientUnits="userSpaceOnUse">
            <stop stop-color="#97C11F"/>
            <stop offset="1" stop-color="#689616"/>
        </linearGradient>
        <linearGradient id="paint2_linear" x1="24.2962" y1="23.0908" x2="24.2962" y2="24.9089" gradientUnits="userSpaceOnUse">
            <stop stop-color="#97C11F"/>
            <stop offset="1" stop-color="#689616"/>
        </linearGradient>
        <linearGradient id="paint3_linear" x1="24.2962" y1="29.7275" x2="24.2962" y2="31.5456" gradientUnits="userSpaceOnUse">
            <stop stop-color="#97C11F"/>
            <stop offset="1" stop-color="#689616"/>
        </linearGradient>
        <linearGradient id="paint4_linear" x1="24.2962" y1="36.3633" x2="24.2962" y2="38.1814" gradientUnits="userSpaceOnUse">
            <stop stop-color="#97C11F"/>
            <stop offset="1" stop-color="#689616"/>
        </linearGradient>
        <linearGradient id="paint5_linear" x1="24.2507" y1="43" x2="24.2507" y2="44.8181" gradientUnits="userSpaceOnUse">
            <stop stop-color="#97C11F"/>
            <stop offset="1" stop-color="#689616"/>
        </linearGradient>
        <linearGradient id="paint6_linear" x1="35.0234" y1="49.6367" x2="35.0234" y2="51.4548" gradientUnits="userSpaceOnUse">
            <stop stop-color="#97C11F"/>
            <stop offset="1" stop-color="#689616"/>
        </linearGradient>
    </defs>
</svg>
