<svg width="60" height="60" viewBox="0 0 60 60" fill="none" xmlns="http://www.w3.org/2000/svg">
    <path
        d="M42.6825 54.2662C42.3292 53.7239 41.6032 53.5705 41.0609 53.9238C37.3125 56.3654 32.9554 57.656 28.4609 57.656C15.7141 57.656 5.34375 47.2858 5.34375 34.5389C5.34375 29.9102 6.70652 25.4444 9.28499 21.6238C9.6471 21.0874 9.50565 20.359 8.96917 19.9969C8.4328 19.6348 7.70425 19.7763 7.34214 20.3128C4.50164 24.5219 3 29.4414 3 34.5391C3 41.3399 5.64843 47.7336 10.4573 52.5427C15.2662 57.3517 21.6601 60 28.4609 60C33.4108 60 38.2101 58.578 42.3402 55.8879C42.8827 55.5347 43.036 54.8086 42.6825 54.2662Z"
        fill="url(#paint0_linear)"/>
    <path
        d="M46.6195 50.7126C46.1574 50.2595 45.4154 50.2669 44.9622 50.7289L44.9232 50.7684C44.4674 51.2278 44.4703 51.9698 44.9297 52.4258C45.1583 52.6525 45.4567 52.7657 45.7552 52.7657C46.0564 52.7657 46.358 52.6502 46.5871 52.4192L46.6356 52.37C47.0889 51.9078 47.0817 51.1659 46.6195 50.7126Z"
        fill="url(#paint1_linear)"/>
    <path
        d="M51.3662 19.2057C51.5951 19.4346 51.895 19.5489 52.1949 19.5489C52.4948 19.5489 52.7946 19.4345 53.0235 19.2057L54.9756 17.2536C56.3665 15.8625 56.3665 13.599 54.9756 12.2079L50.792 8.02428C50.1181 7.35045 49.2221 6.97932 48.2692 6.97932C47.3161 6.97932 46.4202 7.35045 45.7464 8.02428L43.7943 9.97627C43.5746 10.196 43.4511 10.4941 43.4511 10.8049C43.4511 11.1157 43.5746 11.4138 43.7943 11.6335L44.3485 12.1877L42.9443 13.5918C39.9667 11.5237 36.5995 10.129 33.0317 9.48596V7.50034H35.6099C36.257 7.50034 36.7818 6.97569 36.7818 6.32846V1.17187C36.7818 0.524647 36.257 0 35.6099 0H21.3125C20.6654 0 20.1406 0.524647 20.1406 1.17187V6.32835C20.1406 6.97557 20.6654 7.50022 21.3125 7.50022H23.8907V9.4883C20.5366 10.0965 17.3359 11.3738 14.4619 13.269C13.9215 13.6254 13.7723 14.3522 14.1286 14.8926C14.4851 15.433 15.212 15.5822 15.7522 15.2258C19.5259 12.7373 23.9206 11.422 28.4613 11.422C41.2081 11.422 51.5785 21.7923 51.5785 34.5392C51.5785 38.8619 50.3782 43.0771 48.1075 46.7287C47.7658 47.2783 47.9342 48.0008 48.4839 48.3428C48.6766 48.4626 48.8903 48.5196 49.1016 48.5196C49.4932 48.5196 49.8759 48.3235 50.0979 47.9664C52.6 43.9429 53.9223 39.2998 53.9223 34.5392C53.9223 29.2877 52.3418 24.2798 49.4082 20.056L50.8123 18.6519L51.3662 19.2057ZM30.6877 9.17541C29.9513 9.11201 29.2089 9.07815 28.4611 9.07815C27.7147 9.07803 26.972 9.11108 26.2344 9.17518V7.50034H30.6876L30.6877 9.17541ZM22.4844 5.15647V2.34386H34.438V5.15647H22.4844ZM47.9703 18.1787C47.4944 17.6132 46.9934 17.0642 46.4645 16.5354C45.9358 16.0066 45.3868 15.5056 44.8212 15.0296L46.0056 13.8452L49.1546 16.9941L47.9703 18.1787ZM46.8345 11.3593C46.8347 11.3595 46.8343 11.3591 46.8345 11.3593L46.2803 10.8053L47.4038 9.6819C47.635 9.45069 47.9423 9.32342 48.2692 9.32342C48.5961 9.32342 48.9034 9.45069 49.1346 9.68201L53.3182 13.8655C53.7954 14.3427 53.7954 15.1193 53.3182 15.5966L52.1949 16.7198L51.6424 16.1674C51.6419 16.1668 51.6414 16.1662 51.6408 16.1656L46.8345 11.3593Z"
        fill="url(#paint2_linear)"/>
    <path
        d="M28.4613 17.9287C27.8141 17.9287 27.2894 18.4534 27.2894 19.1006V21.6788C27.2894 22.3261 27.814 22.8507 28.4613 22.8507C29.1084 22.8507 29.6331 22.3261 29.6331 21.6788V19.1006C29.6331 18.4534 29.1084 17.9287 28.4613 17.9287Z"
        fill="url(#paint3_linear)"/>
    <path
        d="M40.2061 22.7939C39.9881 22.5759 39.6859 22.4505 39.3775 22.4505C39.0693 22.4505 38.767 22.5759 38.5491 22.7939C38.3312 23.0118 38.2057 23.3142 38.2057 23.6224C38.2057 23.9317 38.3311 24.2329 38.5491 24.4509C38.767 24.6689 39.0693 24.7942 39.3775 24.7942C39.6859 24.7942 39.9881 24.6689 40.2061 24.4509C40.424 24.2329 40.5494 23.9306 40.5494 23.6224C40.5494 23.3142 40.4241 23.0118 40.2061 22.7939Z"
        fill="url(#paint4_linear)"/>
    <path
        d="M43.8995 33.3671H41.3213C40.6742 33.3671 40.1494 33.8917 40.1494 34.5389C40.1494 35.1862 40.6742 35.7108 41.3213 35.7108H43.8995C44.5466 35.7108 45.0714 35.1862 45.0714 34.5389C45.0714 33.8917 44.5466 33.3671 43.8995 33.3671Z"
        fill="url(#paint5_linear)"/>
    <path
        d="M40.2061 44.6267C39.9881 44.4087 39.6859 44.2833 39.3775 44.2833C39.0693 44.2833 38.767 44.4087 38.5491 44.6267C38.3312 44.8447 38.2057 45.147 38.2057 45.4552C38.2057 45.7646 38.3311 46.0669 38.5491 46.2837C38.767 46.5029 39.0693 46.6271 39.3775 46.6271C39.6859 46.6271 39.9881 46.5029 40.2061 46.2837C40.424 46.0657 40.5494 45.7646 40.5494 45.4552C40.5494 45.147 40.4241 44.8458 40.2061 44.6267Z"
        fill="url(#paint6_linear)"/>
    <path
        d="M28.4613 46.2272C27.8141 46.2272 27.2894 46.7518 27.2894 47.3991V49.9773C27.2894 50.6245 27.8141 51.1492 28.4613 51.1492C29.1084 51.1492 29.6331 50.6245 29.6331 49.9773V47.3991C29.6331 46.752 29.1084 46.2272 28.4613 46.2272Z"
        fill="url(#paint7_linear)"/>
    <path
        d="M18.3731 44.6267C18.155 44.4087 17.8528 44.2833 17.5446 44.2833C17.2364 44.2833 16.934 44.4087 16.7162 44.6267C16.4982 44.8447 16.3727 45.147 16.3727 45.4552C16.3727 45.7646 16.4981 46.0657 16.7162 46.2837C16.934 46.5029 17.2364 46.6271 17.5446 46.6271C17.8528 46.6271 18.1551 46.5029 18.3731 46.2837C18.5911 46.0657 18.7165 45.7646 18.7165 45.4552C18.7166 45.147 18.5912 44.8447 18.3731 44.6267Z"
        fill="url(#paint8_linear)"/>
    <path
        d="M15.6009 33.3671H13.0227C12.3756 33.3671 11.8508 33.8917 11.8508 34.5389C11.8508 35.1862 12.3756 35.7108 13.0227 35.7108H15.6009C16.2481 35.7108 16.7728 35.1862 16.7728 34.5389C16.7729 33.8917 16.2482 33.3671 15.6009 33.3671Z"
        fill="url(#paint9_linear)"/>
    <path
        d="M18.3731 22.7939C18.1551 22.5759 17.8528 22.4505 17.5446 22.4505C17.2364 22.4505 16.934 22.5759 16.7162 22.7939C16.4982 23.0118 16.3727 23.3142 16.3727 23.6224C16.3727 23.9306 16.4981 24.2329 16.7162 24.4509C16.934 24.6689 17.2364 24.7942 17.5446 24.7942C17.8528 24.7942 18.1551 24.6689 18.3731 24.4509C18.5911 24.2329 18.7165 23.9306 18.7165 23.6224C18.7165 23.3142 18.5912 23.0118 18.3731 22.7939Z"
        fill="url(#paint10_linear)"/>
    <path
        d="M37.611 25.3891C37.2294 25.0076 36.6369 24.9359 36.1754 25.2153L26.5019 31.0716C26.3972 31.131 26.2508 31.2171 26.1516 31.2952C25.139 32.0184 24.4768 33.2024 24.4768 34.5388C24.4768 36.7361 26.2642 38.5234 28.4613 38.5234C29.7925 38.5234 30.9727 37.8665 31.6966 36.8603C31.7832 36.7531 31.8639 36.6123 31.9296 36.4964L37.7848 26.8246C38.0641 26.3632 37.9923 25.7706 37.611 25.3891ZM29.9105 35.3058L29.8137 35.4656C29.5177 35.8963 29.0221 36.1797 28.4611 36.1797C27.5566 36.1797 26.8205 35.4437 26.8205 34.5391C26.8205 33.978 27.104 33.4821 27.5349 33.1861L27.6938 33.0899C27.9229 32.968 28.1839 32.8984 28.461 32.8984C29.3657 32.8984 30.1018 33.6344 30.1018 34.5392C30.1018 34.816 30.0321 35.0768 29.9105 35.3058ZM31.7418 32.2811C31.4658 31.8814 31.1189 31.5345 30.7191 31.2585L33.3107 29.6896L31.7418 32.2811Z"
        fill="url(#paint11_linear)"/>
    <path
        d="M28.4612 14.2381C17.2671 14.2381 8.16002 23.345 8.16002 34.539C8.16002 45.7331 17.267 54.8401 28.4612 54.8401C39.6554 54.8401 48.7622 45.7331 48.7622 34.539C48.7622 23.345 39.6553 14.2381 28.4612 14.2381ZM28.4612 52.4962C18.5596 52.4962 10.5039 44.4407 10.5039 34.539C10.5039 24.6374 18.5595 16.5818 28.4612 16.5818C38.3628 16.5818 46.4184 24.6374 46.4184 34.539C46.4184 44.4407 38.3628 52.4962 28.4612 52.4962Z"
        fill="url(#paint12_linear)"/>
    <path
        d="M12.1865 16.4642C11.9685 16.2463 11.6662 16.1209 11.358 16.1209C11.0498 16.1209 10.7475 16.2463 10.5296 16.4642C10.3117 16.6822 10.1862 16.9845 10.1862 17.2927C10.1862 17.6021 10.3115 17.9033 10.5296 18.1213C10.7475 18.3392 11.0498 18.4646 11.358 18.4646C11.6662 18.4646 11.9686 18.3392 12.1865 18.1213C12.4045 17.9033 12.5299 17.601 12.5299 17.2927C12.5299 16.9847 12.4046 16.6823 12.1865 16.4642Z"
        fill="url(#paint13_linear)"/>
    <defs>
        <linearGradient id="paint0_linear" x1="29.5094" y1="0" x2="29.5094" y2="60" gradientUnits="userSpaceOnUse">
            <stop stop-color="#97C11F"/>
            <stop offset="1" stop-color="#689616"/>
        </linearGradient>
        <linearGradient id="paint1_linear" x1="29.5094" y1="0" x2="29.5094" y2="60" gradientUnits="userSpaceOnUse">
            <stop stop-color="#97C11F"/>
            <stop offset="1" stop-color="#689616"/>
        </linearGradient>
        <linearGradient id="paint2_linear" x1="29.5094" y1="0" x2="29.5094" y2="60" gradientUnits="userSpaceOnUse">
            <stop stop-color="#97C11F"/>
            <stop offset="1" stop-color="#689616"/>
        </linearGradient>
        <linearGradient id="paint3_linear" x1="29.5094" y1="0" x2="29.5094" y2="60" gradientUnits="userSpaceOnUse">
            <stop stop-color="#97C11F"/>
            <stop offset="1" stop-color="#689616"/>
        </linearGradient>
        <linearGradient id="paint4_linear" x1="29.5094" y1="0" x2="29.5094" y2="60" gradientUnits="userSpaceOnUse">
            <stop stop-color="#97C11F"/>
            <stop offset="1" stop-color="#689616"/>
        </linearGradient>
        <linearGradient id="paint5_linear" x1="29.5094" y1="0" x2="29.5094" y2="60" gradientUnits="userSpaceOnUse">
            <stop stop-color="#97C11F"/>
            <stop offset="1" stop-color="#689616"/>
        </linearGradient>
        <linearGradient id="paint6_linear" x1="29.5094" y1="0" x2="29.5094" y2="60" gradientUnits="userSpaceOnUse">
            <stop stop-color="#97C11F"/>
            <stop offset="1" stop-color="#689616"/>
        </linearGradient>
        <linearGradient id="paint7_linear" x1="29.5094" y1="0" x2="29.5094" y2="60" gradientUnits="userSpaceOnUse">
            <stop stop-color="#97C11F"/>
            <stop offset="1" stop-color="#689616"/>
        </linearGradient>
        <linearGradient id="paint8_linear" x1="29.5094" y1="0" x2="29.5094" y2="60" gradientUnits="userSpaceOnUse">
            <stop stop-color="#97C11F"/>
            <stop offset="1" stop-color="#689616"/>
        </linearGradient>
        <linearGradient id="paint9_linear" x1="29.5094" y1="0" x2="29.5094" y2="60" gradientUnits="userSpaceOnUse">
            <stop stop-color="#97C11F"/>
            <stop offset="1" stop-color="#689616"/>
        </linearGradient>
        <linearGradient id="paint10_linear" x1="29.5094" y1="0" x2="29.5094" y2="60" gradientUnits="userSpaceOnUse">
            <stop stop-color="#97C11F"/>
            <stop offset="1" stop-color="#689616"/>
        </linearGradient>
        <linearGradient id="paint11_linear" x1="29.5094" y1="0" x2="29.5094" y2="60" gradientUnits="userSpaceOnUse">
            <stop stop-color="#97C11F"/>
            <stop offset="1" stop-color="#689616"/>
        </linearGradient>
        <linearGradient id="paint12_linear" x1="29.5094" y1="0" x2="29.5094" y2="60" gradientUnits="userSpaceOnUse">
            <stop stop-color="#97C11F"/>
            <stop offset="1" stop-color="#689616"/>
        </linearGradient>
        <linearGradient id="paint13_linear" x1="29.5094" y1="0" x2="29.5094" y2="60" gradientUnits="userSpaceOnUse">
            <stop stop-color="#97C11F"/>
            <stop offset="1" stop-color="#689616"/>
        </linearGradient>
    </defs>
</svg>
