<svg width="60" height="60" viewBox="0 0 60 60" fill="none" xmlns="http://www.w3.org/2000/svg">
    <path d="M9.96966 53.3123C9.75181 53.0942 9.44947 52.9689 9.14126 52.9689C8.83306 52.9689 8.53072 53.0942 8.31275 53.3123C8.09478 53.5303 7.96939 53.8326 7.96939 54.1408C7.96939 54.449 8.09466 54.7513 8.31275 54.9692C8.53072 55.1871 8.83306 55.3126 9.14126 55.3126C9.44947 55.3126 9.75181 55.1873 9.96966 54.9692C10.1876 54.7513 10.3131 54.449 10.3131 54.1408C10.3131 53.8326 10.1877 53.5302 9.96966 53.3123Z" fill="url(#paint0_linear)"/>
    <path d="M55.0225 21.438C54.8045 21.2199 54.5034 21.0946 54.194 21.0946C53.8858 21.0946 53.5834 21.2199 53.3655 21.438C53.1476 21.656 53.0221 21.9583 53.0221 22.2665C53.0221 22.5747 53.1475 22.8771 53.3655 23.0949C53.5834 23.3129 53.8858 23.4384 54.194 23.4384C54.5034 23.4384 54.8045 23.313 55.0225 23.0949C55.2415 22.8771 55.3669 22.5747 55.3669 22.2665C55.3669 21.9583 55.2415 21.656 55.0225 21.438Z" fill="url(#paint1_linear)"/>
    <path d="M59.6562 0.343242C59.4364 0.123516 59.1382 0 58.8273 0L29.9999 0.00152344C29.3528 0.00152344 28.8282 0.526289 28.8282 1.1734V4.52461L17.7201 7.50105C17.0949 7.66863 16.7239 8.31117 16.8914 8.93625L22.6485 30.4216L17.6682 35.402C17.0343 34.4764 15.97 33.8678 14.7661 33.8678H3.51648C1.57797 33.8678 0.000976562 35.4449 0.000976562 37.3833V56.4844C0.000976562 58.4229 1.57797 60 3.51648 60H14.7662C16.4131 60 17.7985 58.8614 18.1782 57.3305L19.5715 58.5456C20.6472 59.4836 22.0253 60.0001 23.4525 60.0001H58.8276C59.4747 60.0001 59.9995 59.4754 59.9995 58.8282V1.17188C59.9992 0.861094 59.8759 0.562969 59.6562 0.343242ZM15.9379 56.4845C15.9379 57.1305 15.4122 57.6564 14.766 57.6564H3.51637C2.8702 57.6564 2.34449 57.1307 2.34449 56.4845V37.3834C2.34449 36.7372 2.8702 36.2115 3.51637 36.2115H7.96937V49.7109C7.96937 50.358 8.49414 50.8828 9.14125 50.8828C9.78836 50.8828 10.3131 50.358 10.3131 49.7109V36.2115H14.7661C15.4123 36.2115 15.938 36.7372 15.938 37.3834L15.9379 56.4845ZM19.4586 9.4616L28.8282 6.95098V11.2934L28.0428 11.5038C27.7424 11.5843 27.4866 11.7806 27.3312 12.0498C27.1758 12.319 27.1336 12.6388 27.2141 12.939C27.6645 14.6196 26.6636 16.3532 24.983 16.8035C24.6824 16.8841 24.4261 17.0808 24.2709 17.3505C24.1156 17.6202 24.0737 17.9406 24.155 18.2411L28.7228 35.1557H26.3709L25.1588 30.4138C25.1202 30.2629 25.0527 30.1237 24.9624 30.0028L19.4586 9.4616ZM28.8282 16.6675V26.5559L26.6908 18.6416C27.5836 18.1806 28.3143 17.4908 28.8282 16.6675ZM45.6638 57.6562H23.4523C22.5916 57.6562 21.7603 57.3448 21.1116 56.7791L18.2816 54.311V38.1032L23.3978 32.987L24.3257 36.6175C24.4584 37.1362 24.9256 37.4991 25.461 37.4991L48.5005 37.5005C49.4052 37.5005 50.1412 38.2364 50.1412 39.1411C50.1412 40.0458 49.4052 40.7817 48.5005 40.7817H36.6951C36.048 40.7817 35.5232 41.3065 35.5232 41.9536C35.5232 42.6007 36.048 43.1255 36.6951 43.1255H52.1685C53.0732 43.1255 53.8091 43.8614 53.8091 44.7661C53.8091 45.6708 53.0732 46.4067 52.1685 46.4067H36.6951C36.048 46.4067 35.5232 46.9315 35.5232 47.5786C35.5232 48.2257 36.048 48.7505 36.6951 48.7505H49.6611C50.5657 48.7505 51.3017 49.4864 51.3017 50.3911C51.3017 51.2958 50.5657 52.0317 49.6611 52.0317H36.6951C36.048 52.0317 35.5232 52.5565 35.5232 53.2036C35.5232 53.8507 36.048 54.3755 36.6951 54.3755H45.6638C46.5685 54.3755 47.3044 55.1114 47.3044 56.0161C47.3043 56.9203 46.5684 57.6562 45.6638 57.6562ZM57.6557 57.6562H49.2932C49.5204 57.1555 49.648 56.6004 49.648 56.0156C49.648 55.4309 49.5204 54.8757 49.2932 54.375H49.6611C51.858 54.375 53.6453 52.5877 53.6453 50.3907C53.6453 49.75 53.4924 49.1445 53.2224 48.6075C54.9094 48.1441 56.1527 46.5979 56.1527 44.7659C56.1527 43.8771 55.8599 43.0555 55.3662 42.3922V27.5399C55.3662 26.8928 54.8414 26.368 54.1943 26.368C53.5472 26.368 53.0225 26.8928 53.0225 27.5399V40.8749C52.7471 40.8145 52.4615 40.7817 52.1683 40.7817H52.1298C52.3571 40.281 52.4847 39.7259 52.4847 39.1411C52.4847 36.9441 50.6973 35.1568 48.5004 35.1568H46.6166C48.6169 34.299 50.0218 32.3108 50.0218 30C50.0218 26.9075 47.506 24.3916 44.4135 24.3916C41.3212 24.3916 38.8053 26.9075 38.8053 30C38.8053 32.3108 40.2102 34.299 42.2104 35.1568H35.8046V12.8746C37.898 12.4184 39.5499 10.7666 40.006 8.67305H48.8209C49.277 10.7666 50.9289 12.4184 53.0223 12.8746V16.5179C53.0223 17.165 53.5471 17.6898 54.1942 17.6898C54.8413 17.6898 55.3661 17.165 55.3661 16.5179V11.8283C55.3661 11.1812 54.8413 10.6564 54.1942 10.6564C52.4543 10.6564 51.0391 9.24094 51.0391 7.50117C51.0391 6.85406 50.5143 6.3293 49.8672 6.3293H38.9598C38.3127 6.3293 37.788 6.85406 37.788 7.50117C37.788 9.24105 36.3726 10.6564 34.6328 10.6564C33.9857 10.6564 33.4609 11.1812 33.4609 11.8283V35.1567H31.172V2.34504L57.6557 2.34375V57.6562ZM44.4137 33.2646C42.6136 33.2646 41.1493 31.8001 41.1493 30.0001C41.1493 28.2001 42.6138 26.7355 44.4137 26.7355C46.2137 26.7355 47.6782 28.2 47.6782 30C47.6782 31.8 46.2139 33.2646 44.4137 33.2646Z" fill="url(#paint2_linear)"/>
    <defs>
        <linearGradient id="paint0_linear" x1="30.0002" y1="0" x2="30.0002" y2="60.0001" gradientUnits="userSpaceOnUse">
            <stop stop-color="#97C11F"/>
            <stop offset="1" stop-color="#689616"/>
        </linearGradient>
        <linearGradient id="paint1_linear" x1="30.0002" y1="0" x2="30.0002" y2="60.0001" gradientUnits="userSpaceOnUse">
            <stop stop-color="#97C11F"/>
            <stop offset="1" stop-color="#689616"/>
        </linearGradient>
        <linearGradient id="paint2_linear" x1="30.0002" y1="0" x2="30.0002" y2="60.0001" gradientUnits="userSpaceOnUse">
            <stop stop-color="#97C11F"/>
            <stop offset="1" stop-color="#689616"/>
        </linearGradient>
    </defs>
</svg>
