<svg width="100%" height="100%" viewBox="0 0 680 390" fill="none" xmlns="http://www.w3.org/2000/svg">
<path d="M568.811 232.535L567.002 239.074L557.19 242.261L554.253 238.946L552.828 239.323L555.49 249.206L559.477 249.636L564.794 251.572V253.508L567.229 253.078L570.777 248.355V244.491L572.774 240.626L574.99 241.055L572.328 235.684L571.92 232.227L568.811 232.535Z" fill="#97C11F"/>
<path d="M624.476 250.531L624.186 268.942L626.942 268.799L630.568 264.724L633.615 264.867L635.572 266.554L636.222 271.752L642.456 274.916L644.054 274.351V272.453L639.049 268.445L636.583 262.961L638.54 262.049L637.092 259.029L634.194 258.961L633.466 255.729L625.783 250.742L624.476 250.531Z" fill="#97C11F"/>
<path d="M64.3336 157.979L68.116 169.437L66.354 170.387L66.5498 172.662L69.8781 175.125V179.682L73.9894 183.479L72.2274 172.285L69.8781 164.88L70.4654 159.757L72.4232 159.946L73.2063 161.656L72.4232 166.017L82.6038 185.182V192.014L90.8265 201.31L99.8324 205.295L103.552 203.209L108.838 207.382L111.971 204.346L110.6 200.926L115.103 199.6L116.474 200.361L117.844 199.035H119.998L123.913 192.391L121.956 190.681L114.32 192.391L112.558 197.325L108.055 198.086L102.769 195.999L100.42 188.79L102.197 179.698L98.5637 177.52L96.8331 168.789L95.3843 168.194L92.7373 170.778L89.6988 169.219L88.5085 163.396L76.4719 162.183L70.2539 157.686L64.3336 157.979Z" fill="#97C11F"/>
<path d="M362.138 96.3792L357.752 96.2285L354.972 97.8638L354.933 99.0771L356.734 100.712L362.334 101.624L362.138 96.3792Z" fill="#97C11F"/>
<path d="M327.767 159.53L324.572 158.498L311.275 160.901L308.377 163.018L310.147 171.809L304.861 172.013L301.682 176.932L294.109 178.679L294.132 182.258L319.075 200.601L323.327 200.948L337.509 190.288L336.092 188.571L333.429 188.224L331.832 185.648V174.988L330.767 173.956L330.947 171.207L328.112 168.457L327.76 165.534L328.997 164.675L328.464 161.579L327.767 159.53Z" fill="#97C11F"/>
<path d="M307.727 163.139H298.682L296.912 166.92L292.832 168.811L289.465 177.58L282.902 181.361L273.685 195.968L282.73 195.795L283.082 191.501H285.384V185.655H293.364L293.545 178.092L301.172 176.375L304.367 171.388L309.332 171.214L307.727 163.139Z" fill="#97C11F"/>
<path d="M273.747 196.57L275.455 198.717L275.102 207.998L277.585 206.281L279.354 205.934L281.837 206.793L284.672 210.574L287.334 208.857L300.279 208.684L297.084 187.884L300.514 187.869L294.124 183.161L294.132 186.22L286.042 186.227L286.003 192.065L283.677 192.058L283.38 196.367L273.747 196.57Z" fill="#97C11F"/>
<path d="M277.835 206.861L274.75 209.016L274.045 210.221L273.826 211.426L274.961 212.21L278.751 212.157L281.187 211.524L281.461 212.677L281.242 214.199L283.568 215.299L284.053 215.826L287.139 215.931L287.248 214.621L284.429 211.366L281.289 207.276L279.339 206.492L277.835 206.861Z" fill="#97C11F"/>
<path d="M275.306 212.902L275.204 213.739L280.623 213.663L280.897 212.887L280.78 212.104L279.221 212.714L275.306 212.902Z" fill="#97C11F"/>
<path d="M275.228 214.318L276.199 216.587L276.739 215.185L283.325 215.848L280.475 214.439L275.228 214.318Z" fill="#97C11F"/>
<path d="M276.645 217.566L277.741 219.653L280.819 217.106L280.85 216.322L277.224 215.817L276.645 217.566Z" fill="#97C11F"/>
<path d="M278.071 220.135L280.452 223.661L283.553 221.069L286.732 220.934L289.379 224.316L291.627 225.74L292.473 224.158L293.224 223.751L293.17 220.271L291.674 216.143L287.085 216.632L281.407 216.195L281.376 217.596L278.071 220.135Z" fill="#97C11F"/>
<path d="M280.819 224.045L285.244 228.16L288.4 224.475L286.427 221.498L283.709 221.762L280.819 224.045Z" fill="#97C11F"/>
<path d="M285.706 228.609L294.305 234.139L294.101 229.95L291.501 227.005L288.964 224.843L285.706 228.609Z" fill="#97C11F"/>
<path d="M295.025 234.306L298.377 232.023L302.543 231.323L306.795 232.204L304.626 229.048L303.992 227.119L304.626 221.417L300.828 221.59L299.105 220.008L295.487 220.098L293.764 220.362L293.944 224.219L293.036 224.573L291.947 226.501L294.751 229.658L295.025 234.306Z" fill="#97C11F"/>
<path d="M285.15 211.021L287.562 209.431L300.969 209.356L297.868 188.61L301.407 188.512L318.534 201.085L320.837 201.401L319.967 208.392L309.199 209.333L300.89 215.3L299.379 219.383L293.607 219.616L292.135 215.541L287.711 215.842L287.883 214.509L285.15 211.021Z" fill="#97C11F"/>
<path d="M309.528 209.843L312.379 209.625L317.054 215.983L312.715 219.132L309.575 218.356L305.354 218.409L304.673 220.789L301.133 220.955L300.162 219.682L301.415 215.81L309.528 209.843Z" fill="#97C11F"/>
<path d="M317.594 215.66L319.591 215.614L321.393 213.015L324.415 212.496L327.634 214.386L334.502 214.575L339.812 212.496L341.808 210.846L341.957 208.676L345.661 205.083L346.64 197.15L344.205 192.239L337.971 190.777L323.546 201.595L321.502 201.407L320.625 208.917L313.264 209.625L317.594 215.66Z" fill="#97C11F"/>
<path d="M304.634 226.997L305.511 228.979L307.797 232.429L309.066 232.384L312.527 230.493L312.284 219.728L309.606 218.975L305.855 219.073L304.634 226.997Z" fill="#97C11F"/>
<path d="M313.154 230.162L315.252 228.979L315.205 221.182L313.843 219.058L312.966 219.766L313.154 230.162Z" fill="#97C11F"/>
<path d="M315.886 228.834H317.546L317.64 224.299L319.739 221.369L319.645 216.269L317.742 216.224L314.477 218.679L315.84 221.18L315.886 228.834Z" fill="#97C11F"/>
<path d="M318.127 228.745L321.197 228.888L324.901 232.858L326.702 233.333L328.112 232.67L330.258 232.384L330.986 229.506L333.907 227.66L337.071 227.517L342.866 217.265L342.772 214.952L340.094 212.971L334.737 215.238L327.572 215.14L324.157 213.061L321.722 213.581L320.453 215.705L320.359 221.702L318.315 224.489L318.127 228.745Z" fill="#97C11F"/>
<path d="M328.573 159.409L332.903 157.729L334.328 158.618L334.383 159.703L333.718 160.539L333.819 162.023L334.485 162.37V165.037L333.718 166.272L333.819 167.063L336.724 168.05L334.383 171.553L333.467 171.5L333.31 174.318L332.293 174.468L331.423 173.73L331.627 170.867L328.777 168.201L328.417 165.88L329.795 164.841L328.573 159.409Z" fill="#97C11F"/>
<path d="M332.599 175.004L333.821 174.808L334.181 172.096H334.792L337.29 168.148L343.453 169.874L345.137 172.39L351.198 175.056L354.354 173.776L354.049 172.495L352.671 171.214L352.827 170.326L355.067 168.502H359.5L361.183 170.672L364.746 171.169L365.208 198.959L362.562 198.861L346.57 190.861L344.84 191.803L338.269 190.221L336.484 187.953L333.884 187.607L332.56 185.339L332.599 175.004Z" fill="#97C11F"/>
<path d="M365.396 171.259L367.487 171.311L371.559 172.396L373.494 172.449L375.89 170.521H377.01L379.046 171.605H381.622L382.084 171.575L383.713 176.08L384.175 177.534L384.606 179.711L383.839 180.253L382.515 179.613L380.988 174.822L379.61 174.724L379.508 176.351L380.424 179.169L387.762 187.907L387.919 191.659L385.781 194.032L365.702 193.813L365.396 171.259Z" fill="#97C11F"/>
<path d="M342.576 211.14L342.678 208.917L346.39 205.445L347.385 196.917L344.91 192.367L346.641 191.516L363.399 199.915L363.298 208.156L360.345 210.575V214.823L362.28 218.424H358.865L353.211 223.803L353.062 225.43L348.888 225.377L348.833 226.116L346.453 225.814L344.824 222.854L343.602 222.274L343.759 221.37L345.294 220.24V214.951L343.171 214.635L340.611 212.804L342.576 211.14Z" fill="#97C11F"/>
<path d="M386.662 221.942L384.357 218.218L384.115 215.51L383.561 215.611L383.411 216.446L380.391 220.69L377.98 219.584L375.576 221.522L370.602 221.246L368.401 219.554L365.242 221.11L365.123 222.145L364.159 222.703L373.807 232.255L379.063 232.542L379.829 233.664L387.348 233.792L387.41 232.173L388.052 231.05L390.559 230.741L387.434 226.38H385.132L384.545 223.283L386.392 222.5L386.662 221.942Z" fill="#97C11F"/>
<path d="M388.944 192.015L386.055 194.818L365.85 194.644L366.069 199.593L364.143 199.54L364.002 208.452L361.081 210.871L360.963 214.592L363.071 218.593L365.38 219.904L365.345 220.216L368.493 218.665L370.894 220.51L375.31 220.754L377.861 218.699L380.122 219.734L382.667 216.158L382.881 214.97L384.821 214.616L385.122 217.984L387.062 221.118L391.763 211.391V205.477L395.179 201.605L388.944 192.015Z" fill="#97C11F"/>
<path d="M330.853 232.444L333.374 234.673L333.194 238.124L347.024 237.815L348.152 236.594L344.189 232.489L343.602 231.005L346.124 226.462L344.408 223.449L342.968 222.703V221.174L344.636 220.127L344.73 215.366L343.406 215.223L343.383 217.724L337.572 228.157L334.016 228.33L331.581 229.943L330.853 232.444Z" fill="#97C11F"/>
<path d="M392.633 210.16L392.437 205.723L395.539 202.242L396.377 202.86L397.904 207.772L405.234 213.022L403.902 214.597L398.538 210.16H392.633Z" fill="#97C11F"/>
<path d="M404.2 215.315L403.753 217.847L406.855 217.802L406.902 214.079L405.766 213.408L404.2 215.315Z" fill="#97C11F"/>
<path d="M386.979 223.012L392.68 210.809L398.342 210.839L403.362 215.035L403.01 218.492H406.902L407.301 220.572L413.597 224.195L417.482 224.383L410.097 232.015L399.955 235.02H397.442L392.962 231.344L391.192 230.628L387.762 225.77L385.499 225.8L385.233 223.57L386.979 223.012Z" fill="#97C11F"/>
<path d="M407.536 217.951L410.731 220.045L411.679 220L419.611 217.378L420.512 220.173L419.878 222.532L418.163 223.843L413.879 223.579L407.747 219.955L407.536 217.951Z" fill="#97C11F"/>
<path d="M420.246 217.205L423.668 215.939L424.882 216.64L424.749 219.563L421.593 228.211L404.513 245.809L402.532 244.498L402.399 237.07L404.967 234.23L410.418 232.61L418.414 224.49L420.505 222.697L421.092 220.075L420.246 217.205Z" fill="#97C11F"/>
<path d="M344.824 232.271L348.473 236.068L349.914 234.275L352.209 234.365L352.702 232.618L354.957 231.262L359.64 234.365L362.342 231.789L372.828 232.233L363.102 222.576L364.41 221.792L364.59 220.09L362.381 219.088H359.139L353.916 224.067L353.736 226.116L349.593 225.988L349.46 226.862L346.758 226.598L344.323 231.051L344.824 232.271Z" fill="#97C11F"/>
<path d="M337.564 238.733L337.47 240.609L333.053 240.519L330.352 245.543L336.703 252.225L338.277 250.96L338.23 249.649L337.149 249.167V248.248L339.585 246.764L341.746 248.338L344.135 248.383L344.088 240.481L340.305 240.308L340.258 238.65L337.564 238.733Z" fill="#97C11F"/>
<path d="M333.335 238.78L333.288 239.828L336.843 240.001L336.797 238.818L333.335 238.78Z" fill="#97C11F"/>
<path d="M341.175 238.651L341.128 239.743L344.871 239.833L345.004 249.182L341.582 249.092L339.601 247.608L338.066 248.436L337.995 248.851L338.786 249.22L339.013 251.141L336.899 252.888L337.353 253.807L339.694 252.06H340.822L341.182 253.107L342.67 253.717L347.447 249.83L347.353 246.99L348.348 244.677L351.41 242.493L352.232 235.103L350.055 235.11L347.534 238.432L341.175 238.651Z" fill="#97C11F"/>
<path d="M337.689 254.253L339.052 255.956L340.814 254.351L340.297 252.685L339.859 252.655L337.689 254.253Z" fill="#97C11F"/>
<path d="M339.906 256.12L347.98 255.984L349.616 258.222L349.554 259.872L350.157 260.399H354.166L355.318 258.222H356.954L357.62 258.87L359.867 258.809L360.533 266.403L364.417 266.523V267.111L374.856 271.638L375.342 272.52H377.527L377.284 269.341L373.337 267.518L373.58 265.107L375.279 261.28L379.164 261.16L375.827 250.508L375.89 245.98L381.168 238.04L381.231 236.925L380.44 236.511L380.471 234.357L379.508 234.274L378.537 233.084L362.601 232.39L359.68 235.125L354.895 232.097L353.211 233.091L351.989 242.982L348.966 245.227L348.058 247.216L348.222 250.161L342.772 254.448L341.323 253.815L341.519 254.636L339.906 256.12Z" fill="#97C11F"/>
<path d="M377.84 244.21L380.04 246.162L379.946 248.249L376.532 248.317V246.011L377.84 244.21Z" fill="#97C11F"/>
<path d="M376.579 248.964L379.923 248.896L379.054 251.715L378.208 252.423H377.174L376.438 250.517L376.579 248.964Z" fill="#97C11F"/>
<path d="M378.216 243.6L380.589 245.74L382.077 244.828L386.102 244.195L386.791 244.263L387.05 242.794L389.321 238.199L387.41 234.372L381.216 234.41L381.176 235.984L382.006 236.753L381.881 238.327L378.216 243.6Z" fill="#97C11F"/>
<path d="M388.028 234.132L390.112 238.042L387.613 243.081L387.284 244.611L399.76 252.031L403.628 246.185L401.67 244.656L401.631 236.957L404.082 234.38L400.175 235.631L397.222 235.669L392.602 231.917L391.145 231.314L388.443 231.556L387.966 232.324L388.028 234.132Z" fill="#97C11F"/>
<path d="M387.825 267.956L401.506 266.344L398.428 260.619L398.264 255.135L399.258 252.513L386.243 244.648L382.163 245.296L380.745 246.306L380.62 248.603L379.704 251.79L378.748 252.882L377.378 253.003L380.001 261.749L384.285 263.685L387.237 263.768L387.825 267.956Z" fill="#97C11F"/>
<path d="M359.616 277.96L362.099 281.274L365.944 281.5L367.307 282.224L371.332 282.269L374.801 277.591L384.496 273.417L385.342 269.741L384.214 264.475L379.155 261.703L375.78 261.929L374.096 265.515L374.143 267.15L378.121 269.01L378.356 273.056L374.934 273.236L374.088 271.873L364.581 267.971L364.299 270.969L359.804 271.105L359.616 277.96Z" fill="#97C11F"/>
<path d="M339.31 256.873L341.981 266.463L341.918 269.491L338.01 273.529L337.423 280.09L352.459 280.219L357.345 281.921L361.379 281.416L359.029 278.584L359.037 270.493L363.657 270.305V267.148L359.906 266.998L359.154 259.525L357.573 259.547L356.719 258.809L355.787 258.854L354.55 261.16H349.788L348.684 260.09L349.013 258.576L347.713 256.745L339.31 256.873Z" fill="#97C11F"/>
<path d="M385.154 273.968L387.589 276.416L387.542 279.55L388.012 280.868L391.246 277.508L390.87 273.237L389.14 271.964L387.597 264.468L384.927 264.378L386.141 269.779L385.154 273.968Z" fill="#97C11F"/>
<path d="M380.463 299.489L382.57 301.169L387.535 298.261L388.334 293.944V286.818L396.298 280.55L397.661 280.595L402.485 276.143L401.733 266.968L388.944 268.52L389.32 271.292L391.521 272.927L392.038 277.921L387.731 281.966L386.697 279.699L386.885 276.701L384.402 274.109L378.31 276.836L383.979 279.609L384.167 287.692L380.416 293.048L380.463 299.489Z" fill="#97C11F"/>
<path d="M367.534 283.684L374.559 291.315L379.946 292.634L383.557 287.187L383.275 279.97L377.417 277.062L375.216 278.019L371.935 282.833L367.393 282.788L367.534 283.684Z" fill="#97C11F"/>
<path d="M345.521 306.028L348.144 306.209L349.687 307.708L353.344 307.753L354.237 297.764V291.225L356.579 290.773L357.471 283.918L363.423 283.737L365.53 282.058L361.966 281.922L357.142 282.555L351.942 280.739H337.329L337.705 284.732L342.576 291.632L341.731 295.173L341.778 297.034L345.521 306.028Z" fill="#97C11F"/>
<path d="M354.887 297.945L356.57 298.442L356.335 303.075L358.066 303.301L362.044 299.851L366.821 300.348L368.09 297.259L374.136 291.948L366.876 283.911L366.782 282.592L365.983 282.366L363.783 284.317L358.066 284.453L357.267 291.308L355.02 291.805L354.887 297.945Z" fill="#97C11F"/>
<path d="M380.229 300.032L378.263 300.349L377.417 302.572L378.921 303.891H380.746L382.288 301.758L380.229 300.032Z" fill="#97C11F"/>
<path d="M369.688 308.613L372.077 306.842L373.204 306.887L374.567 308.522L374.426 310.158L372.131 310.971V311.605L369.602 311.469L368.991 309.698L369.688 308.613Z" fill="#97C11F"/>
<path d="M374.973 292.221L368.787 297.72L367.315 301.117L362.412 300.53L358.332 304.018L355.623 303.762L355.842 298.94L354.879 298.616L354.205 308.477L349.397 308.432L347.948 306.79L345.826 306.767L347.76 312.108L351.214 315.25L348.747 318.014L350.344 321.48L354.041 322.836L356.985 320.425L365.419 320.47L366.022 319.747L369.766 319.114L382.429 306.986L382.382 303.166L381.027 304.854H378.999L376.532 302.865L377.785 299.867L379.938 299.445L379.743 293.283L374.973 292.221ZM372.005 306.157L373.188 306.112L375.107 308.116L375.052 310.436L372.804 311.528L372.663 312.297L369.233 312.334L368.16 309.848L369.139 308.025L372.005 306.157Z" fill="#97C11F"/>
<path d="M208.145 25.8774L207.08 27.5122L208.999 29.3578L208.145 31.2034L210.918 34.6838L214.324 33.6592L218.796 33.2525L223.91 38.5784L227.316 47.3847L224.552 52.9141L228.381 52.2964L230.511 53.5243L230.723 56.191L226.04 56.3944L228.593 58.8503L231.788 59.468L224.763 68.4777L223.91 74.0071L225.398 78.5119L224.332 81.1787L226.251 86.9114L229.869 90.8061L230.934 90.6027L233.276 89.985L233.487 93.2619L234.975 95.311L237.74 95.1076L239.87 87.5292L246.26 79.9508L255.845 76.267L261.805 69.0954L264.569 70.3233H270.317L275 65.8185L280.748 63.566L281.391 60.0857L277.773 57.0122L274.577 55.9876L272.87 51.6862L276.919 49.4338L283.309 52.7107L285.439 50.4583L282.033 48.6126L289.277 39.1886L288 35.0905L284.594 34.8872L285.87 31.2034L290.13 29.3578L298.862 21.9828L296.309 19.3236L286.512 20.1447L281.398 25.0639L284.382 18.7134L280.976 17.8923L279.057 21.1692L276.292 18.9168L268.626 19.7379L270.756 16.4609L283.317 16.0542L280.122 11.9561L266.496 9.50027L260.959 10.3214L261.17 12.9881L255.422 11.1425L255.634 9.29688L251.585 10.118L250.731 12.167L254.992 13.5983L250.52 16.6719L247.325 13.1915L242.853 11.9636L242.211 15.2406H237.74L236.032 11.7602L229.008 10.7357L225.178 12.5813L224.967 15.0372L220.072 14.4195L217.089 15.6474L217.3 18.5175V19.9488L211.763 20.9733L209.21 19.3386L207.503 21.9978L210.056 24.6646L215.381 24.0469L215.804 25.6891L211.756 27.5348L208.145 25.8774Z" fill="#97C11F"/>
<path d="M225.187 57.832L226.463 59.6783L225.821 61.9316H224.545L222.837 60.0853L223.26 58.6535L225.187 57.832Z" fill="#97C11F"/>
<path d="M278.423 52.708L282.041 53.7329L281.83 56.6041L278 54.7578L277.147 53.7329L278.423 52.708Z" fill="#97C11F"/>
<path d="M552.75 310.564L552.476 329.684L549.422 331.838L549.148 333.721L553.314 336.411L563.596 334.527H568.875L570.817 331.83L582.485 329.676L590.818 332.102L590.262 335.333L591.374 338.565L597.764 337.488L598.038 339.1L593.872 342.061L595.258 343.138L598.312 342.061L597.482 350.95L603.316 355.259L606.652 354.181L608.32 355.794L618.047 354.445L627.217 340.17L630.553 339.364L637.218 327.514L638.886 317.284L634.719 312.169L636.387 311.092L633.051 301.125L629.441 298.699L629.997 285.238L626.661 282.812L625.831 275.271H624.163L618.603 293.042L615.549 293.313L608.602 286.579L612.494 276.612L605.274 275.264L597.216 277.418L594.992 283.61L591.382 284.417L591.107 280.108L576.385 288.725L576.659 291.957L574.435 294.918H568.875L556.924 299.762L552.75 310.564Z" fill="#97C11F"/>
<path d="M603.316 362.001L601.93 367.387L602.204 371.154L606.37 370.883L611.092 363.884L603.316 362.001Z" fill="#97C11F"/>
<path d="M671.668 351.229L672.498 360.118L671.386 364.155L667.22 367.116L667.494 370.619V374.386L668.606 375.734L680 366.31V364.155H677.22L673.328 351.5L671.668 351.229Z" fill="#97C11F"/>
<path d="M663.334 370.617L665.558 374.655L659.442 380.312L658.886 383.273L654.72 383.808L647.774 390L641.383 387.04L640.827 384.885L652.496 380.041L663.334 370.617Z" fill="#97C11F"/>
<path d="M522.451 227.389L522.232 229.106L527.549 237.702H529.099L540.181 255.533L544.613 255.962L546.829 249.732L543.282 247.585L542.616 244.15L522.451 227.389Z" fill="#97C11F"/>
<path d="M555.076 238.952L557.441 241.582L566.51 238.561L568.303 231.901L572.344 231.623L576.04 229.046L571.248 225.686L570.151 223.841L567.786 228.037L568.655 230.447L567.214 232.459L564.497 231.788L557.911 236.436L558.083 239.126L555.076 238.952Z" fill="#97C11F"/>
<path d="M567.316 228.655L565.06 231.285L566.909 231.843L567.95 230.441L567.316 228.655Z" fill="#97C11F"/>
<path d="M574.959 251.148L576.729 253.234L575.578 256.368V256.963H578.194L579.118 249.129L579.963 249.355L581.498 256.511L582.963 256.888L584.349 253.83L582.963 249.204L581.812 247.193L585.43 244.654L584.584 243.532L581.122 245.694H580.198L578.507 243.306L579.047 242.259L581.898 240.918L586.205 242.183L587.513 242.108L590.747 239.2L589.439 237.935L586.44 240.172H584.513L581.592 238.831L579.517 238.906L577.207 242.485L575.742 248.677L574.959 251.148Z" fill="#97C11F"/>
<path d="M594.272 237.13L592.807 240.559L595.117 243.468H595.885L596.887 241.531L597.428 240.86L596.425 239.813L594.961 239.293L594.272 237.13Z" fill="#97C11F"/>
<path d="M598.813 248.393L595.657 249.063L594.733 250.035L595.501 251.301L597.576 250.555L598.884 249.809L600.81 251.301L601.656 250.631L600.121 248.837L598.813 248.393Z" fill="#97C11F"/>
<path d="M546.485 258.086L544.332 259.502L544.794 260.692L551.646 262.184L555.107 262.779L556.572 264.271L560.495 264.572L562.343 266.064L564.035 265.687L565.578 264.346L562.727 263.08L560.268 261.069L553.878 259.577L546.485 258.086Z" fill="#97C11F"/>
<path d="M568.882 264.573L567.191 265.47L568.193 266.518L570.652 265.621L568.882 264.573Z" fill="#97C11F"/>
<path d="M571.803 263.904L572.108 265.321L573.878 265.766L574.567 264.944L573.8 263.821L571.803 263.904Z" fill="#97C11F"/>
<path d="M576.039 267.631L573.886 267.932L575.812 269.5H577.347L576.039 267.631Z" fill="#97C11F"/>
<path d="M576.651 265.169L576.189 266.065L579.651 266.585L582.344 265.093L580.81 264.649L578.351 265.319L577.426 264.573L576.651 265.169Z" fill="#97C11F"/>
<path d="M587.967 265.696L583.965 268.907L584.349 269.728L586.04 269.427L588.037 267.633L591.961 267.113L591.193 265.847L587.967 265.696Z" fill="#97C11F"/>
<path d="M648.072 255.608L647.328 255.774L646.874 257.711L645.448 258.6L641.165 259.324L641.337 260.876L645.848 260.658L648.706 258.939L648.534 255.948L648.072 255.608Z" fill="#97C11F"/>
<path d="M574.833 212.293L574.16 213.528L573.784 215.05L570.041 219.623L570.268 220.564L571.842 220.346L576.705 215.118L574.833 212.293Z" fill="#97C11F"/>
<path d="M580.895 210.552L580.817 214.326L582.242 215.704L582.767 218.386L584.192 218.68L584.865 217.008L583.745 216.209L583.448 211.493L580.895 210.552Z" fill="#97C11F"/>
<path d="M584.944 212.005L584.866 215.343L585.688 216.647L587.113 215.049L586.737 212.148L584.944 212.005Z" fill="#97C11F"/>
<path d="M585.837 209.099L587.263 210.915L587.936 212.656H589.212L588.985 209.679L587.56 208.737L585.837 209.099Z" fill="#97C11F"/>
<path d="M588.609 215.925L588.907 218.102L586.284 220.136L584.114 220.354L581.796 222.75L581.875 223.842L584.044 223.187L585.54 222.245L586.816 225.364L589.064 226.886L589.964 226.592L590.786 225.65L588.993 223.91L590.042 223.111L591.241 224.053L592.063 222.75L591.241 221.153L591.092 217.597L588.609 215.925Z" fill="#97C11F"/>
<path d="M576.408 193.793L574.388 195.172L574.16 199.526L577.309 205.402L578.358 206.2L579.705 205.326L582.023 205.688L582.469 207.647L584.192 207.79L585.014 206.705L583.965 205.326L582.689 204.166L579.995 203.88L578.569 201.627L580.214 199.232L580.363 197.13L579.243 194.448L576.408 193.793Z" fill="#97C11F"/>
<path d="M577.457 206.777L578.052 208.812L579.102 209.468L579.854 208.526L578.655 206.928L577.457 206.777Z" fill="#97C11F"/>
<path d="M551.701 191.682L549.829 192.187L548.482 193.784L549.602 195.887L551.247 196.03L553.118 194.432L553.565 192.33L551.701 191.682Z" fill="#97C11F"/>
<path d="M573.338 175.214L570.566 177.248L570.417 181.165L572.813 183.847L573.408 183.342L573.338 175.214Z" fill="#97C11F"/>
<path d="M585.688 151.19L584.411 152.426L584.936 154.167L586.056 154.242L586.808 158.017L587.708 158.958L589.282 157.58L589.956 155.108L588.006 152.426L585.688 151.19Z" fill="#97C11F"/>
<path d="M592.579 148.728L590.41 150.687L590.332 152.94L590.857 153.596L593.778 151.199L593.55 148.803L592.579 148.728Z" fill="#97C11F"/>
<path d="M589.58 144.08L585.758 148.291L586.432 149.308L588.304 149.526L591.82 146.912L594.294 146.475L596.542 149.014L598.265 148.434L598.938 145.963L602.157 145.888L605.305 142.257L603.661 136.23L602.909 133.036L604.553 131.733L600.81 126.294L599.839 126.369L597.819 128.546V130.362L598.719 131.379L599.017 136.17L596.699 138.927L595.352 138.129L594.302 140.381L594.075 142.483L594.897 143.718L594.373 144.66L592.65 143.281H591.452L590.402 143.861L589.58 144.08Z" fill="#97C11F"/>
<path d="M596.024 111.281L594.826 112.298L595.429 114.475L596.479 115.492L596.4 118.83L595.053 119.334L594.004 121.587L597.074 125.647L599.094 124.992L599.47 123.975L597.301 122.091L598.648 120.419L600.073 120.637L601.193 121.798L601.271 119.402L604.341 117.006L606.064 116.57L604.639 114.249L603.965 113.232L602.845 113.956L601.874 115.116L599.776 114.679L597.606 113.3L596.024 111.281Z" fill="#97C11F"/>
<path d="M582.094 80.5059L582.023 85.1538L588.085 94.156L590.254 101.991L594.075 108.959L595.571 109.463L596.848 108.446L597.443 106.774L591.977 101.041L592.125 98.0657L593.324 97.561L593.621 95.8209L582.916 81.2366L582.094 80.5059Z" fill="#97C11F"/>
<path d="M420.504 269.085L418.836 272.897L415.978 277.748L410.974 278.095L408.828 280.521L409.188 287.918L406.087 291.383L406.447 297.274L409.071 300.16L412.172 299.813L415.273 297.613L414.561 294.148L421.711 282.246L420.277 280.746L421.711 277.861L423.261 278.321L423.739 277.168L422.306 271.277L421.468 268.852L420.504 269.085Z" fill="#97C11F"/>
<path d="M153.124 195.606L151.816 196.895L153.312 197.483L153.531 199.283L150.218 199.562L150.555 201.295L151.518 201.363L152.074 200.564L155.943 200.685L156.64 201.973L157.533 200.964L160.14 200.286L162.435 200.753L162.701 199.419L158.566 196.82L155.888 195.855L153.124 195.606Z" fill="#97C11F"/>
<path d="M162.709 199.419L158.566 196.811L156.608 196.171L155.951 200.692L156.64 201.966L157.54 200.964L160.164 200.293L162.443 200.76L162.709 199.419Z" fill="#97C11F"/>
<path d="M153.116 195.606L155.81 195.878L155.489 199.058L155.222 200.731L152.082 200.565L151.526 201.371L150.563 201.304L150.218 199.563L153.531 199.299L153.327 197.49L151.808 196.888L153.116 195.606Z" fill="#97C11F"/>
<path d="M274.891 76.5295L273.356 75.6934L271.289 76.9514L269.511 78.5334L269.558 79.4148L271.861 79.6935L271.72 81.2755L270.905 82.0665L271.101 82.5787L273.403 82.7218V85.2831L276.716 85.8406L278.682 86.9103L280.89 87.0007L284.68 85.1852L287.609 81.4638L287.656 78.9477L285.879 77.5013L284.391 76.2885L283.717 76.7555L282.707 78.0136L281.556 77.8705L280.404 76.6576L278.917 76.7932L276.755 78.5183L275.455 79.8668L274.735 79.2641L274.688 77.7725L275.408 77.3055L274.891 76.5295Z" fill="#97C11F"/>
<path d="M489.606 220.217L489.802 222.266L489.998 223.758L488.847 223.946L489.426 227.298L491.157 228.233L493.842 226.741L493.075 223.208L493.271 221.905L490.773 219.675L489.606 220.217Z" fill="#97C11F"/>
<path d="M129.615 189.234V190.19L133.781 190.266L135.746 189.166L136.052 189.972L140.14 190.929L143.773 194.085L142.943 195.185L143.092 196.436L146.123 197.166L149.153 195.848L150.516 194.53L148.55 193.573L138.409 187.848L134.854 187.479L129.615 189.234Z" fill="#97C11F"/>
<path d="M143.773 198.777L141.047 199.441V200.172L142.637 201.053H144.305L145.362 199.878L143.773 198.777Z" fill="#97C11F"/>
<path d="M608.163 243.789L604.897 244.143L602.799 245.62L603.668 247.307L607.223 247.94V248.573L604.976 250.328L606.064 253.981L607.153 254.049L608.092 250.463H609.831L610.559 253.974L619.04 260.724L619.26 265.997L622.157 269.018L623.465 268.95L623.755 250.328L618.829 247.028L614.185 250.049L612.517 251.036L609.76 249.349L609.69 244.008L608.163 243.789Z" fill="#97C11F"/>
<path d="M29.5785 21.9746L23.0081 23.4738L24.3629 30.5926L31.5128 32.4684L31.8965 33.9675L21.2695 37.154L15.2787 46.7061L17.4009 56.8232L20.878 59.0681L23.5876 56.6349L24.3629 58.134L21.0738 61.878L8.31674 67.4978L0.19578 69.3735L0 72.1834L18.7479 66.9403L26.4773 64.8762L33.6272 56.4466L41.5524 51.3918L37.4958 57.9457L41.9439 58.5107L49.4854 55.3241L50.8402 60.5672L56.0558 61.6897L61.4671 66.7445L61.8509 70.4885L61.0756 71.4226L62.0388 74.9782H63.3936L63.5894 68.9818H65.1321L65.5158 83.777L69.3845 80.5905L66.6749 65.2303H62.6183L58.1702 59.7988L80.0114 24.2045L58.366 7.91016L34.2067 12.4075L33.2435 19.5264L38.459 22.5246L36.5247 27.3985L29.5785 21.9746Z" fill="#97C11F"/>
<path d="M116.207 15.1952L116.379 18.2235L110.13 24.4535L111.696 29.5007L116.207 28.3255L118.815 24.6192L125.409 22.2613L130.789 21.9223L126.623 17.5455L124.539 19.0597L122.973 18.555L122.104 16.7018L120.193 14.8486L116.207 15.1952Z" fill="#97C11F"/>
<path d="M124.367 6.27475L122.981 8.63264L129.755 10.9905L132.183 7.45746L133.224 9.81535H134.963L138.26 6.28228L134.266 5.27284L132.7 4.09766L130.616 6.11655L124.367 6.27475Z" fill="#97C11F"/>
<path d="M136.177 10.9902L130.797 13.1749V14.8548L137.743 17.3784L136.177 19.0583L137.219 21.2429L141.557 19.3898H145.207L146.945 22.0791L149.897 19.2165L149.2 16.5196L146.773 17.3633L146.428 13.996L147.642 11.9771H146.428L144.517 13.1523L143.648 13.8227L144.173 16.1806L142.787 17.1901L140.704 17.0243L140.179 13.996L136.177 10.9902Z" fill="#97C11F"/>
<path d="M143.295 5.76953L142.771 7.45006L146.068 8.96479L148.495 7.61585L148.323 6.60603L143.295 5.76953Z" fill="#97C11F"/>
<path d="M145.895 2.90723L143.467 3.75126L143.64 4.92687L149.02 4.58775L148.847 3.41214L145.895 2.90723Z" fill="#97C11F"/>
<path d="M157.532 5.76875L157.188 6.94437L156.318 8.11998V9.8005L159.615 9.29559L163.084 12.1593H164.298V9.29559L160.829 5.58789L157.532 5.76875Z" fill="#97C11F"/>
<path d="M166.389 9.13697L167.775 10.6517L166.561 12.6713L167.431 14.8568L171.252 12.8371V11.3224L168.997 8.79785L166.389 9.13697Z" fill="#97C11F"/>
<path d="M171.425 5.26575L171.597 7.9551H176.288L177.502 8.96455L177.33 10.1397L173.163 10.6445L176.116 14.5165L180.11 15.187L185.662 12.8291L177.674 1.21289L175.246 2.72706L175.419 4.74596L172.639 3.73651L171.425 5.26575Z" fill="#97C11F"/>
<path d="M130.97 24.2871L124.376 25.967L120.554 29.1686L120.899 32.7017L127.845 34.7206L126.279 38.0879L121.243 35.0596L119.857 37.5832L123.154 39.7678L122.982 43.3009L128.017 44.6494L134.094 44.3104L135.136 42.4572L139.647 47.3387L142.771 46.3293L143.296 42.9619L145.551 44.4761L145.896 41.1087L143.116 39.4288L143.288 28.8296L140.86 26.9765L138.26 30.3438L130.97 24.2871Z" fill="#97C11F"/>
<path d="M152.153 31.6927L149.897 30.6832L148.683 32.1974L151.111 35.9038L151.283 39.4368L156.491 36.4085V32.0317L158.402 30.1785L156.491 28.8301H153.366L152.153 31.6927Z" fill="#97C11F"/>
<path d="M163.265 30.1777L159.616 33.0409L160.485 36.5747H162.74L163.782 34.7212L165.348 36.2357L166.914 36.0699L171.08 32.7019L163.265 30.1777Z" fill="#97C11F"/>
<path d="M162.913 24.6182L162.043 26.2987L165.865 27.6476L166.906 26.1329L162.913 24.6182Z" fill="#97C11F"/>
<path d="M160.657 18.2227L156.836 18.7275L154.58 20.7467L158.747 20.9124L157.533 23.9413L158.402 25.2899L159.616 25.1242L162.568 20.5809L160.657 18.2227Z" fill="#97C11F"/>
<path d="M167.259 17.0469L165.176 17.7173L165.521 20.4067L168.99 22.5913L169.162 24.2712L168.121 25.2807L168.645 28.648L182.013 32.8515L185.663 34.0267L189.312 30.9984L184.973 27.631L180.98 28.6405L175.427 28.1357L173.344 26.1168L172.819 20.5649L169.35 18.885L167.259 17.0469Z" fill="#97C11F"/>
<path d="M178.191 34.5538L174.37 34.2148L169.859 35.8947L167.431 39.0888L168.128 47.8424L175.591 48.1814L182.71 51.5487L187.745 57.1007L191.567 56.935L190.526 62.1479L187.056 67.6999L183.235 69.3798L180.455 68.8751L179.069 67.6999L176.985 70.3893L177.855 73.0786L180.807 73.2443L184.456 71.5644L187.581 79.3086L195.397 84.1901L200.777 77.6287L196.266 70.5625L198.874 67.6999L202.523 73.5909L209.117 68.0389L207.903 65.5153L203.392 66.8637L200.268 58.6149L203.22 53.9066L197.315 47.8499L194.018 50.0346L190.894 43.4731L184.3 44.3169L182.561 36.407L177.181 39.9401L176.657 44.3169H173.704L174.049 40.4448L178.191 34.5538Z" fill="#97C11F"/>
<path d="M186.007 37.582L184.621 38.931L185.835 40.7848L191.567 41.4555L187.918 37.7478L186.007 37.582Z" fill="#97C11F"/>
<path d="M180.454 18.5613V20.0754L176.633 20.9192L177.674 22.5991L182.013 24.279L186.876 24.7837L190.345 27.1416L193.814 25.2884L191.387 22.9305H194.511L196.422 20.9116L201.113 20.2412V19.2317L198.505 17.5518L198.85 15.6987L206.141 16.8738L216.908 12.836L212.915 11.6609L213.956 10.3124H222.289L223.675 8.96398L206.83 3.23875L202.836 1.89031L198.497 4.91865L193.634 1.04659L191.026 0.880859L190.502 4.08247L187.205 1.21985L183.383 2.39503L184.08 4.2482L189.813 5.42338L189.468 8.11273L192.593 9.9659L200.236 8.11273L200.408 10.6364L194.159 13.499L190.337 10.6364L186.868 10.9753L190.337 15.6911L188.599 16.5348L185.991 14.3502L184.08 15.5254L185.819 18.7195H188.771L188.074 21.7478L185.646 21.4088L182.522 18.2072L180.454 18.5613Z" fill="#97C11F"/>
<path d="M164.98 64.8838L161.667 68.8915L161.463 73.3059L164.361 71.7013H167.877L170.36 73.9086L172.639 72.1006L164.98 64.8838Z" fill="#97C11F"/>
<path d="M205.319 117.012L197.041 124.635L197.871 126.443L208.005 130.052L209.454 127.649L208.624 123.641L205.311 124.04L203.447 122.036L206.548 119.031L205.319 117.012Z" fill="#97C11F"/>
<path d="M80.5677 24.8125L82.1261 27.08L82.9092 30.1083L86.8091 31.05L89.5422 28.2175L91.8837 29.355L98.5168 29.92L103.2 28.0292L103.983 34.2667H106.716V31.6225L109.449 31.8108L116.278 39.5625L120.765 42.2067L118.424 45.8L119.403 46.7416L128.166 48.4442L128.361 52.2258L130.703 52.6025L131.29 46.93L134.995 45.9883L137.728 49.9583L143.578 52.6025L146.506 53.1675L148.456 50.9L148.652 47.3066L152.161 45.2275L153.327 48.2558L150.203 53.5517L150.594 56.1958L152.348 53.5517L155.857 50.5233L156.053 46.5533L154.103 43.525L154.69 41.0691L159.373 38.8017L161.519 40.3158L161.91 53.5517L165.223 50.7192L167.173 51.8567L164.44 56.3917L167.948 57.145L173.023 49.5817L177.314 53.9283L175.56 61.68L171.269 63.9475L167.173 62.0566L159.765 63.5708L160.548 66.0266L158.598 69.055L152.552 70.3808L145.723 75.4883L139.678 83.24L138.894 85.6958L142.99 87.21L144.549 90.9917L150.203 96.4758L159.177 100.258L157.227 108.951L157.032 111.407L159.373 112.921L162.498 108.951L162.889 101.387L167.768 101.199L170.11 96.8525L170.501 90.2383L176.743 78.5167L184.543 81.1608L188.638 86.645L186.884 92.1292L190.009 93.8317L197.613 88.9125L199.759 102.337L206.783 110.465L206.979 114.623L199.179 116.514L195.475 120.296L187.675 118.593L183.775 118.405L176.946 123.512L181.042 122.571L186.117 121.629L187.096 122.767L185.733 126.925L185.929 130.707L188.27 132.221L190.612 131.656L191.786 129.953H193.345L190.807 134.488L185.929 134.677L183.783 137.705H181.05L180.267 135.438L184.167 131.656L179.484 133.17L179.272 126.744L177.925 125.991L173.829 127.693L173.438 130.91H164.072L156.076 136.206L145.347 139.611L144.181 138.097L149.584 130.338L146.514 127.498L144.564 123.897L140.594 120.981L136.334 120.642L128.698 115.497L73.3238 106.744L72.4075 103.135L67.3329 98.6002V94.8185L68.116 91.4135L67.7245 89.5227L65.7745 87.6319L65.3829 84.6035L70.4576 81.1985L67.3329 64.9419L63.0414 64.7535L59.1415 59.8344L80.5677 24.8125Z" fill="#97C11F"/>
<path d="M73.1588 107.438L72.3757 110.467L69.6426 108.764H68.28L67.4969 111.981L57.935 132.592L60.4723 150.551L63.597 152.065L64.1843 156.984H70.6215L76.863 161.519L89.1502 162.657L90.5128 168.706L92.4628 170.032L95.1959 167.388L97.3416 168.329L99.2916 177.023L102.604 179.102L105.337 174.183L113.724 168.322L119.183 170.778L123.866 171.154L124.062 168.322L133.812 168.51L135.761 170.589L136.153 175.313L134.986 177.957L136.349 182.492H139.278L142.207 178.145L141.04 176.066L139.873 171.531L141.627 166.423L149.623 159.809L155.668 158.107L154.885 152.623L163.272 143.922L171.66 142.596L170.297 138.068L178.489 133.533V127.484L177.705 127.108L174.777 128.049L174.385 131.756L164.651 131.869L157.023 136.743L145.049 140.509L143.138 138.257L148.573 130.347L145.887 127.884L144.063 124.539L140.28 121.616L136.169 121.285L128.4 116.185L73.1588 107.438Z" fill="#97C11F"/>
<path d="M65.8682 99.6113L64.67 100.063L66.8705 102.52L67.4031 105.428L69.6036 107.688L71.4675 107.364V104.396L69.2043 103.039L65.8682 99.6113Z" fill="#97C11F"/>
<path d="M109.276 207.767L113.92 211.037L118.603 205.439L117.805 204.279L116.207 204.227V200.95L115.009 200.249L111.383 201.289L112.769 204.362L109.276 207.767Z" fill="#97C11F"/>
<path d="M119.198 205.7L126.434 205.437L128.58 207.892L127.241 207.599L124.664 207.704L121.297 210.747L119.856 213.829L118.908 213.346L118.901 209.972L116.818 208.631L119.198 205.7Z" fill="#97C11F"/>
<path d="M114.579 211.344L118.26 213.108L118.205 210.312L116.317 209.204L114.579 211.344Z" fill="#97C11F"/>
<path d="M127.179 208.21L128.894 208.541L128.949 211.924L126.952 217.408L121.572 216.896L120.374 214.252L121.971 211.042L125.002 208.33L127.179 208.21Z" fill="#97C11F"/>
<path d="M126.897 217.905L127.986 219.955L128.871 221.085L127.68 224.483L125.409 222.946L121.697 219.676V217.514L126.897 217.905Z" fill="#97C11F"/>
<path d="M129.411 221.394L128.267 224.83L132.042 225.772L134.384 226.216L134.783 223.557L137.297 222.336L139.529 223.444L140.406 224.792L141.471 224.672L142.309 222.223L139.521 221.115L137.406 220.008L135.292 221.394L132.778 222.615L130.21 221.62L129.411 221.394Z" fill="#97C11F"/>
<path d="M155.363 213.987L153.75 213.829L143.084 222.289L141.956 225.264L140.5 225.423L141.15 231.999L137.43 240.775L141.471 244.067L146.647 244.384L150.203 249.401L155.371 249.559L155.207 253.318H157.141L159.24 246.425L157.298 244.075L157.783 239.691L161.824 239.374L161.339 229.189L152.286 226.372L150.187 220.888L155.363 213.987Z" fill="#97C11F"/>
<path d="M152.803 218.614L153.147 220.565L155.692 221.341L156.272 217.748L158.958 215.073L161.644 218.102L167.823 219.721L173.054 218.667L176.617 222.893L179.303 224.512L176.359 228.829L177.346 232.098L175.662 234.102L173.916 235.511L170.133 233.68L169.264 234.524V237.13L172.028 238.396L169.992 240.513L167.956 242.63L165.27 242.419L162.568 239.564L161.996 228.821L152.771 225.793L151.095 221.07L152.803 218.614Z" fill="#97C11F"/>
<path d="M179.891 224.798L185.545 229.725L183.297 232.226L183.117 233.71L186.07 236.64L185.999 239.457L180.862 241.341L177.784 237.341L178.442 232.534L177.126 228.956L179.891 224.798Z" fill="#97C11F"/>
<path d="M186.218 230.079L187.815 231.487L190.29 230.011L192.545 230.079L192.256 230.922L191.308 232.821L191.159 237.544L186.656 239.307L186.876 236.278L183.97 233.672L184.119 232.331L186.218 230.079Z" fill="#97C11F"/>
<path d="M193.267 230.577L197.847 233.327L195.452 237.907L194.582 238.962L192.038 237.553L192.108 232.619L193.267 230.577Z" fill="#97C11F"/>
<path d="M136.937 241.16L133.232 243.375L132.966 246.659L132.222 247.737L134.556 249.891L133.546 250.953L133.781 253.665L137.955 254.622L144.274 247.428L144.259 244.919L141.228 244.731L136.937 241.16Z" fill="#97C11F"/>
<path d="M132.888 251.457L131.369 252.934L131.47 255.292L144.736 278.554L158.512 287.097L160.642 283.662L161.151 276.106L160.039 271.398L156.287 265.311L154.056 265.996L153.045 267.074L148.589 262.162L149.701 256.369L154.87 253.13L154.463 250.086L149.2 249.89L146.467 245.476L144.948 244.986L145.05 247.638L138.268 255.39L133.201 254.214L132.888 251.457Z" fill="#97C11F"/>
<path d="M159.263 268.989L165.708 266.284L167.838 266.48L169.256 272.175L179.076 275.316L180.697 280.13L184.746 280.62L186.469 284.741L185.255 288.469L178.669 288.959L176.241 294.948L171.073 294.85L169.452 294.556L166.468 297.344L164.996 297.208L159.929 285.916L161.331 283.897L161.824 275.912L160.571 271.158L159.263 268.989Z" fill="#97C11F"/>
<path d="M185.145 289.118L186.868 290.926L186.664 294.753L191.629 294.459L195.381 299.077L195.075 303.198L192.647 306.731L187.682 306.927L187.479 304.96L188.896 301.721L184.033 298.776H179.984L176.946 295.634L179.154 289.563L185.145 289.118Z" fill="#97C11F"/>
<path d="M191.88 313.54L190.275 315.19L190.94 324.064L195.983 325.473L202.397 319.288L191.88 313.54Z" fill="#97C11F"/>
<path d="M195.882 303.195L197.401 304.566L191.63 312.815L189.601 314.977L190.306 324.401L194.762 329.606L191.019 335.889L188.184 337.064H184.942L185.85 341.968L180.783 343.641L181.997 347.761L178.959 357.087L182.71 360.033L180.682 364.839L177.236 370.044L179.061 373.675L174.605 374.361L170.955 370.044L170.344 356.598L164.675 333.757L166.39 325.772L162.74 315.564L165.168 302.313L167.4 299.76L166.852 297.824L169.718 295.308L176.108 295.729L179.679 299.398L183.806 299.466L188.035 301.952L186.79 304.754L187.088 307.587L193.078 307.316L195.882 303.195Z" fill="#97C11F"/>
<path d="M179.883 375.439L176.539 382.507L182.31 383.094L182.412 378.385L179.883 375.439Z" fill="#97C11F"/>
<path d="M182.921 378.974L183.124 383.292L186.57 382.998L189.507 381.129L184.542 380.149L182.921 378.974Z" fill="#97C11F"/>
<path d="M178.748 374.332L176.234 377.006L175.928 380.148L171.065 377.496L165.897 370.332L164.377 367.778L166.507 365.127L166.304 361.789L163.876 360.81L161.95 359.439L162.357 357.571L164.886 356.885L165.395 346.09L161.448 343.928L158.872 287.738L159.538 286.623L164.581 297.81L166.194 297.84L166.719 299.625L164.573 302.126L162.106 315.588L165.615 325.954L163.994 333.803L169.71 356.885L170.313 370.385L174.409 374.942L178.748 374.332Z" fill="#97C11F"/>
<path d="M202.75 318.751L207.644 309.696L207.824 302.087L216.956 296.422H222.069L226.087 289.876L226.815 277.311L225.171 273.951L234.85 265.453L235.218 256.074L222.069 249.882L206.188 245.106L198.701 244.398L200.714 240.33L200.166 234.138L198.529 233.618L196.109 238.243L194.84 239.773L191.583 238.387L180.627 242.1L176.977 237.678L177.565 233.061L174.119 236.435L170.313 234.462L169.929 234.982L169.937 236.586L173.218 238.281L168.293 243.276L165.184 243.245L162.035 240.164L158.472 240.27L158.034 243.931L160.078 246.319L157.666 253.754L154.846 253.965L150.359 256.692L149.263 262.048L153.155 266.056L153.867 265.28L156.601 264.572L158.934 268.354L165.614 265.596L168.206 265.74L169.992 271.819L179.522 274.727L181.167 279.578L185.224 280.045L187.158 284.678L185.85 288.799L187.557 290.953L187.307 294.162L191.88 293.748L196.07 298.84L195.741 302.419L198.223 304.438L192.272 313.108L202.75 318.751Z" fill="#97C11F"/>
<path d="M116.857 200.897L116.818 203.647H117.475L119.715 199.623H118.196L116.857 200.897Z" fill="#97C11F"/>
<path d="M597.231 43.0974L598.609 47.6776L601.366 48.4385L604.123 44.2425L602.549 41.3799L603.136 38.9015H607.271L606.284 40.8073L606.676 47.6776L600.771 61.7948L601.358 64.8458L601.162 69.9985L612.181 85.4491L614.342 86.0216L614.538 73.4336L616.699 71.5277L614.334 66.5709L616.3 64.4691L611.969 58.9398L609.604 59.1281L608.821 49.9753L614.922 48.446L615.313 45.7717L618.462 45.0109L620.231 46.5401L622.393 38.1481L626.128 32.0462L629.081 30.517L631.641 30.7053V27.8427L627.507 27.0819L621.798 22.5017L624.554 19.4507L622.189 14.298L624.155 12.3921L626.52 15.4431L632.424 17.5448L638.917 18.1173L639.708 15.4506L636.364 12.2113L640.099 7.25447L631.634 4.39186L629.472 8.58785L626.716 5.15271L611.171 0L596.409 2.47842L594.247 3.62347V4.76852L597.396 6.29776L597.004 9.92123L591.295 7.63113L578.702 12.3996L576.541 8.01533H567.88L563.941 12.023L549.97 8.97204L537.181 11.4505L535.607 15.2623L537.573 15.8348L537.377 18.6974L524.98 20.0308L525.771 23.8426L514.353 21.9367L517.11 16.9798L505.496 16.4073L506.483 21.56L502.748 23.2776L499.599 20.415L486.811 22.5167L481.893 26.9011L481.697 29.5678L478.549 29.7561L478.158 26.7052L488.197 18.3132V12.588L481.705 10.8704L473.24 13.5372L469.7 10.102H468.126L466.16 13.9138L467.734 15.6314L456.512 21.545L446.872 28.6036L440.967 36.423V39.6623L447.264 42.1407L444.115 44.4308L437.428 42.1407L434.671 44.4308L430.536 39.8506L429.745 41.5682L434.272 55.3012L435.454 55.6854L438.602 54.1562L440.176 55.3012V57.7796L437.224 56.6346L435.454 57.968L436.637 60.4464L435.65 66.9325L429.549 67.505L429.158 65.4033L432.697 63.3015L433.488 57.5763L429.549 52.6194L428.171 44.0391L421.875 43.0824L421.287 46.1333L422.47 47.6626L419.909 49.7643L420.896 55.4896L424.631 57.0188L425.422 61.2148L421.679 58.9247L412.039 57.2071L410.856 60.2581L403.182 62.9248L401.999 61.0189L391.96 66.36L391.764 69.9834L387.825 70.556L389.007 67.8892V65.2225L385.068 63.8891L382.507 64.8458L384.669 68.8535L386.243 71.5202V73.622L383.29 73.0495L382.703 72.4769L379.751 75.5279L381.325 78.1946L374.637 78.0063L376.798 80.6806L376.211 81.8256H372.671L370.111 80.1081L369.523 75.3395L365.388 73.8103V71.9044L374.05 73.622L378.772 74.0062L380.737 71.1436L378.968 68.0926L366.375 63.3241L362.029 64.3637L360.541 65.5916L361.003 68.4165L362.851 68.7254L362.42 73.17L368.121 86.0518L364.002 92.3344L363.72 93.7507L365.811 95.1669L363.924 96.3647L362.671 96.3873L362.906 101.924L364.637 104.282L364.66 106.572L366.876 106.768L370.267 108.011L373.854 112.757L373.893 114.007L372.726 115.928L375.404 115.785L378.012 116.508L381.536 121.307L390.213 122.068L389.837 127.778L386.846 130.242L387.464 131.206L384.512 134.257L383.729 137.119L385.499 139.598L391.208 141.504L393.573 140.17L408.726 145.7L409.314 144.17L406.165 141.308V137.684L404.2 137.112L404.591 134.061L407.739 130.437L402.093 126.369L402.485 120.712L408.523 116.893L415.61 117.277L416.792 119.379L424.075 119.763L429.393 116.9L426.636 114.038L427.224 108.697L440.999 102.21L451.594 106.806L455.134 103.755L465.565 113.292L473.435 112.531L476.192 115.198L483.671 115.959L488.589 109.472L494.885 112.147L498.229 112.719L501.573 109.857L498.621 107.951L501.181 104.139L508.464 106.429L510.038 109.48L513.187 109.668L515.152 108.335L520.47 108.147L521.057 109.48L527.157 109.864L531.292 105.668L539.758 106.625L542.319 105.668L543.102 101.088L540.541 95.5587L543.102 93.4569H551.168L558.843 102.233L568.679 107.574H571.631L572.022 105.284L575.562 103.182L575.954 115.582L572.806 115.77V118.821L574.575 120.923L574.247 123.65L575.554 124.17L576.345 122.264L577.528 122.648L578.311 123.409L581.851 122.648L585.39 112.727L585.782 100.327L581.255 90.4059L575.547 83.7315L572.79 84.1157V86.2175L566.102 83.7391L568.663 78.398L570.824 64.2808L579.877 61.6141L584.208 58.9473H588.93L587.747 60.4765L588.93 62.3824L593.065 58.1864L595.43 58.3748L595.038 55.8964L591.295 55.1355L593.856 46.171L597.231 43.0974Z" fill="#97C11F"/>
<path d="M481.666 116.275L478.957 122.828L475.221 122.64L471.282 130.934L474.626 135.032L467.734 144.185L464.195 143.613L461.83 146.475L462.417 148.193L465.174 148.381L466.552 151.432L469.309 152.005L477.774 162.498V167.839L481.909 170.318L486.435 169.557L492.144 172.796L499.036 174.702L502.38 174.318L506.123 173.934L513.993 168.977L516.554 169.361L517.533 171.598L519.702 172.224L522.655 176.42L520.689 180.616L521.872 183.478L525.215 184.623L525.803 188.058L529.742 188.443L530.329 186.725L536.038 183.862L539.578 184.051L543.713 188.435L546.469 187.29L548.239 187.478L549.03 189.58L550.408 189.768L552.374 187.102L560.244 184.239L567.332 176.035L569.697 168.216L569.501 163.063L566.549 162.491L568.318 160.585L567.927 157.534L560.448 150.287V146.664L562.609 143.997L564.771 143.04L564.967 140.938H559.453L558.467 143.801L555.906 143.228L552.758 139.989L554.723 135.032L557.48 132.17L560.041 132.358L559.649 136.742L561.028 137.887L564.371 134.648L565.554 134.46L565.162 131.981L568.311 128.358L570.676 128.546L572.054 124.35L573.667 123.529L573.832 120.915L572.265 119.333L572.132 115.205L575.147 115.017L574.951 104.372L572.837 105.592L572.046 108.32L568.514 108.312L558.279 102.775L550.886 94.2023L543.384 94.127L541.473 95.724L543.901 101.073L543.055 106.09L540.032 107.295L538.333 107.167L538.207 112.131L539.977 112.515L543.125 111.182L547.26 113.088V114.994L544.308 115.182L541.943 120.139L539.781 120.327L532.107 130.053L524.041 133.488L518.528 133.872L514.792 131.394L509.475 134.068L503.766 132.35L502.387 128.727L492.747 128.154L487.634 120.147H485.472L483.734 116.433L481.666 116.275Z" fill="#97C11F"/>
<path d="M484.329 116.351L488.886 110.535L494.36 112.968L498.08 113.925L502.638 109.902L499.545 107.71L501.581 104.945L507.658 107.009L509.764 110.332L513.57 110.429L515.56 109.006L519.655 108.848L520.548 110.309L527.353 110.64L531.66 106.414L537.62 107.017L537.275 112.772L539.883 113.345L543.086 111.944L546.477 113.556L546.399 114.369L543.94 114.437L541.379 119.605L539.39 119.793L531.653 129.519L523.751 132.871L518.81 133.24L514.706 130.694L509.459 133.391L504.29 131.846L502.826 128.238L493.037 127.575L488.025 119.402L485.59 119.251L484.329 116.351Z" fill="#97C11F"/>
<path d="M566.149 134.506L567.59 135.086L568.029 139.937L570.887 140.096L573.581 137.06L572.649 136.261L572.759 133.007L575.233 130.129L573.972 127.944L574.795 127.04L575.249 124.781L573.816 124.155L572.594 124.75L571.083 129.165L568.639 128.961L565.812 132.171L566.149 134.506Z" fill="#97C11F"/>
<path d="M574.027 137.464L578.866 141.261L579.688 144.937L579.523 146.911L577.159 149.472L575.123 149.577L572.813 144.779L571.936 142.489L572.868 141.795L572.649 140.839L571.498 140.342L574.027 137.464Z" fill="#97C11F"/>
<path d="M408.28 130.248L411.491 128.93L415.078 128.809L415.328 134.082H413.23L411.624 136.598L413.723 139.951L416.816 141.631L417.098 143.551L418.234 143.19L419.283 141.992L421.014 142.354L421.883 144.034H424.107V141.879L422.745 138.045L422.126 134.934L426.081 133.254L431.398 134.09L434.734 137.322L442.276 136.606L446.481 142.354L451.422 142.595L452.785 140.44L454.516 140.079L454.766 137.683L457.358 137.563L458.721 139.122L460.084 136.011L471.823 137.57L473.796 135.054L470.46 131.099L474.908 121.758L478.495 121.999L480.97 116.251L476.028 115.769L473.185 113.132L465.354 114.006L455.268 104.627L451.712 107.663L440.929 102.955L427.702 109.185L427.334 113.615L430.427 117.087L424.397 120.364L416.574 120.199L414.937 117.886L408.805 117.562L402.994 121.155L402.869 126.067L408.28 130.248Z" fill="#97C11F"/>
<path d="M421.718 144.54L421.233 146.521H417.983V149.203L421.476 151.417L420.395 154.453V155.855L421.844 156.088L423.77 153.64L428.109 152.706L437.381 156.088L437.498 158.536L442.675 159.003L448.454 153.165L447.734 151.297L443.881 150.483L433.042 143.711L432.557 141.263H428.461L426.652 144.532H424.843L421.718 144.54Z" fill="#97C11F"/>
<path d="M449.182 153.18L451.594 153.301V149.331L449.307 148.05L453.16 143.38H454.727L456.293 145.135L460.389 143.621L454.727 141.752L454.507 140.622L453.16 140.939L451.837 143.154L446.128 142.973L441.938 137.27L434.577 137.971L431.069 134.626L426.213 133.835L422.689 135.214L424.733 141.752L424.757 143.952L426.245 143.982L428.069 140.637L432.925 140.698L433.645 143.267L444.053 149.911L448.078 150.8L449.182 153.18Z" fill="#97C11F"/>
<path d="M450.176 147.74L453.395 143.898H454.609L455.032 144.757L453.544 145.797V146.656L454.523 147.334L459.229 147.605L460.764 146.972L461.461 147.108L461.931 148.554L464.727 148.825L466.129 151.673L465.706 152.531L465.15 152.577L464.594 151.492L463.38 151.401L461.281 151.673L461.14 153.571L459.041 153.435L459.135 151.04L457.6 149.594L455.267 151.447L455.314 152.667L453.262 153.345H452.048L452.142 149.142L450.176 147.74Z" fill="#97C11F"/>
<path d="M455.361 138.228L455.118 140.134L455.314 141.309L462.127 143.508L456.144 145.829L455.463 145.286L454.171 146.085L454.234 146.522L454.923 146.823L459.12 146.928L461.25 146.311L463.983 142.996L467.406 143.569L471.533 138.069L460.491 136.623L458.964 140.186L457.037 138.197L455.361 138.228Z" fill="#97C11F"/>
<path d="M437.592 159.198L438.837 168.584L441.938 169.24L442.228 170.927L440.004 172.712L444.147 175.929L452.197 173.142L452.839 169.842L457.906 166.799L459.848 159.748L461.297 158.249L459.793 155.733L464.696 152.817L464.069 151.974L461.806 152.109L461.602 154.113L458.564 154.083L458.509 151.409L457.53 150.286L455.886 151.725L455.933 153.043L453.45 153.947L448.869 153.669L442.917 159.665L437.592 159.198Z" fill="#97C11F"/>
<path d="M444.648 176.368L446.684 179.275L446.488 180.774L443.779 181.807L443.583 184.247H446.684L447.749 183.404H453.654L458.979 187.908L459.66 185.746H463.631L463.725 183.027L459.66 179.275L460.53 177.211L464.696 176.933L470.311 165.67L467.21 163.328L466.051 159.388L473.6 158.732L469.144 152.63L466.771 152.013L465.8 153.143L465.072 153.195L460.616 155.915L462.072 158.265L460.428 159.953L458.392 167.177L453.356 170.273L452.675 173.656L444.648 176.368Z" fill="#97C11F"/>
<path d="M482.12 223.954L485.707 222.266L487.837 214.854L487.743 205.754L499.944 193.083V190.077L502.458 189.135L502.364 185.663L499.654 180.593L501.205 177.873L504.596 180.879L508.95 181.067V182.755L507.595 184.164L507.885 184.917L510.211 185.007L510.696 187.538H511.377L513.124 184.533L513.993 176.653L516.898 174.679L516.992 171.96L515.833 169.798L513.993 169.707L506.788 174.288L507.243 177.233L502.184 177.218L500.398 175.116L499.427 175.237L499.756 178.16L488.816 177.406L482.034 174.498L481.674 170.92L477.155 168.223L477.1 162.671L473.999 159.259L466.873 159.914L467.648 162.897L471.141 165.617L465.103 177.504L461.062 177.798L460.396 179.229L464.375 182.77L464.179 186.348L460.114 186.288L459.676 188.066L463.051 187.923L463.145 189.331L460.725 190.552L462.276 193.369L465.275 194.311L467.116 193L467.985 190.657L469.05 190.19L470.311 191.41L469.927 194.416L469.058 195.825L469.253 198.266L482.12 223.954Z" fill="#97C11F"/>
<path d="M482.285 170.882L482.645 174.099L488.973 176.856L499.114 177.58L498.73 175.222L491.956 173.429L486.208 170.137L482.285 170.882Z" fill="#97C11F"/>
<path d="M501.244 175.041L502.458 176.639L506.561 176.669L506.146 174.483L501.244 175.041Z" fill="#97C11F"/>
<path d="M501.377 178.83L500.351 180.615L503.014 185.482L503.092 189.279L503.578 190.296L506.702 190.348L508.472 188.714L509.757 189.459L510.015 191.772L511.041 191.154L511.104 188.201L510.242 188.103L509.702 185.595L507.525 185.52L506.984 184.126L508.316 182.416L508.339 181.572H504.471L501.377 178.83Z" fill="#97C11F"/>
<path d="M527.901 216.902L525.732 213.558L527.306 211.433L525.818 208.804L524.416 208.548L524.15 204.134L522.051 200.224L521.44 201.158L520.039 203.448L518.284 203.704L517.407 202.597L516.969 199.621L515.653 197.241L510.297 192.382L511.612 191.546L511.855 188.028L513.813 184.864L514.659 176.992L517.493 175.131L517.587 172.261L519.287 172.803L521.965 176.532L519.976 180.63L521.315 183.847L524.628 185.097L525.231 188.6L529.679 189.263L528.449 191.305L522.842 193.429L522.231 196.909L526.351 202.002L526.523 204.721L525.56 205.655L525.646 206.507L528.716 210.838L528.802 215.336L527.901 216.902Z" fill="#97C11F"/>
<path d="M528.364 191.909L530.901 195.051V198.87L531.778 199.292L535.811 197.423L536.602 197.68L541.418 203.028L541.246 206.682L539.672 206.426L538.27 205.574L537.221 205.657L535.38 208.625L535.733 210.237L537.221 210.998L537.134 212.784L536.085 213.296L532.491 210.915V208.791L531.003 208.708L530.392 209.642L530.079 219.149L532.404 223.232L536.524 227.052L536.351 228.159L534.159 228.076L532.146 225.191H530.039L527.408 223.149L526.617 221.025L527.753 219.24L528.144 217.628L529.382 215.518L529.327 210.667L526.304 206.463L526.179 205.951L527.157 205.002L526.93 201.665L522.905 196.761L523.375 193.936L528.364 191.909Z" fill="#97C11F"/>
<path d="M530.462 225.793L532.036 229.19L532.389 233.604L534.495 236.746L539.578 239.714L541.504 239.887L541.152 236.829L539.484 232.927L537.041 227.932L536.837 228.806L533.892 228.678L531.778 225.755L530.462 225.793Z" fill="#97C11F"/>
<path d="M536.547 213.754L539.75 217.046L545.71 212.797L546.234 206.093L543.157 208.134L541.559 207.275L539.39 206.997L538.176 206.176L537.589 206.206L535.999 208.714L536.257 209.874L537.871 210.741L537.675 213.099L536.547 213.754Z" fill="#97C11F"/>
<path d="M532.623 186.228L530.728 187.154L529.154 191.569L531.785 194.793L531.347 198.356L531.785 198.529L536.163 196.488L542.036 202.801L541.895 206.778L543.172 207.441L546.328 204.978L546.069 203.027L536.962 194.702L537.048 193.429L538.183 192.668L537.392 190.544L533.625 189.949L532.623 186.228Z" fill="#97C11F"/>
<path d="M540.134 217.506L541.066 218.915L541.238 220.527L543.689 220.783L546.665 216.963L549.469 216.203L550.957 212.3L550.26 206.018L547.37 202.198L544.324 199.856L540.447 193.452L543.227 188.978L539.249 184.586L536.062 184.45L533.195 185.934L534.049 189.482L537.871 190.13L538.897 192.865L537.55 193.708L537.636 194.386L546.603 202.824L546.955 205.302L546.415 213.137L540.134 217.506Z" fill="#97C11F"/>
<path d="M391.654 141.956L394.215 145.173L397.41 146.59L399.376 146.582L402.751 145.7L403.597 144.427L393.612 140.833L391.654 141.956Z" fill="#97C11F"/>
<path d="M402.821 146.272L406.58 150.99L405.476 152.233L402.814 151.789L399.509 148.94L399.689 147.071L402.821 146.272Z" fill="#97C11F"/>
<path d="M404.145 144.637L403.354 145.932L407.043 150.588L408.327 150.189L410.442 152.321L411.358 148.584L413.652 148.938L413.558 147.868L409.784 144.689L409.063 146.558L404.145 144.637Z" fill="#97C11F"/>
<path d="M402.767 152.342L401.811 153.299L401.905 154.813L403.096 156.418L407.317 160.862L406.674 162.64H405.938L405.57 164.418L407.959 167.356L410.159 167.537L414.568 173.405L417.043 173.586L418.969 174.919L419.063 177.586L426.683 181.858H429.526L431.272 180.434L433.473 180.343L434.757 183.191L442.988 184.291L443.23 181.383L445.956 180.434L446.081 179.394L443.912 176.547L439.08 172.81L441.617 170.588L441.437 169.609L438.258 169.134L436.911 158.813L436.754 156.441L428.132 153.269L424.31 154.098L422.172 156.621L420.277 156.501L419.729 156.945L415.508 156.682L410.183 152.945L408.202 150.858L407.293 151.069L405.656 152.87L402.767 152.342Z" fill="#97C11F"/>
<path d="M394.191 145.746L392.445 147.524L386.024 147.343L382.171 145.121L378.412 145.03L374.097 147.968L370.056 148.149L369.688 150.371H365.099L363.266 151.976V152.865L364.37 153.754V154.733L363.908 155.893L364.37 156.872L365.843 156.164L367.315 157.679L366.947 158.748L366.399 159.464L367.221 160.353L371.262 161.151L374.104 159.991V158.304L375.483 158.567L378.788 160.436L382.366 159.901L383.925 158.477L384.935 158.831V160.436H386.313L387.504 158.213L397.966 157.144L402.532 156.609L401.326 155.087L401.302 153.031L402.218 151.976L398.882 149.4L399.062 147.177H397.23L394.191 145.746Z" fill="#97C11F"/>
<path d="M404.599 206.041L405.726 209.265V212.414L408.436 214.779L427.529 207.299L427.709 205.242L424.647 199.954L416.964 202.312L412.555 206.485L407.441 203.578L404.599 206.041Z" fill="#97C11F"/>
<path d="M425.265 199.719L431.053 196.51L432.079 191.802L430.81 191.101L431.335 186.054L432.439 185.437L433.621 187.222L440.662 190.763V192.729L432.133 204.804L428.21 204.932L425.265 199.719Z" fill="#97C11F"/>
<path d="M421.843 187.743L422.524 190.365L430.246 191.02L430.786 185.641L432.274 184.858L432.681 182.892L430.246 183.547L427.536 187.487L421.843 187.743Z" fill="#97C11F"/>
<path d="M420.763 183.283L420.356 186.305L421.562 187.186L422.658 187.088L423.065 183.283L422.118 182.627L420.763 183.283Z" fill="#97C11F"/>
<path d="M413.449 174.355L411.687 173.436L410.465 174.619L410.598 176.985L413.441 178.032L413.449 174.355Z" fill="#97C11F"/>
<path d="M414.004 178.928L419.494 186.288L421.264 187.644L422.055 190.944L430.505 191.584L431.46 192.066L430.513 196.134L424.96 199.283L416.839 201.648L412.509 205.716L407.364 202.831L404.247 205.453L399.908 198.635L396.932 197.324L395.852 195.75V192.337L385.021 179.742L384.614 177.512H387.731L391.521 174.363L391.654 172.789L390.573 171.742L392.743 170.039L397.347 170.303L405.202 176.6L409.838 176.397L410.136 177.497L414.004 178.928Z" fill="#97C11F"/>
<path d="M384.77 160.767L384.496 162.68L386.704 163.569L386.611 168.872L388.819 168.827L391.027 167.223L391.857 167.087L396.869 163.253L397.88 157.686L387.864 158.665L386.806 160.895L384.77 160.767Z" fill="#97C11F"/>
<path d="M398.585 157.678L397.363 163.486L392.304 167.539L392.626 169.453L397.567 169.776L405.437 175.939L409.839 175.818L409.956 174.394L411.569 172.729L413.825 173.957L414.122 173.686L409.76 168.104L407.693 167.984L404.944 164.586L405.492 162.085L406.33 161.98L406.62 160.872L402.877 157.083L398.585 157.678Z" fill="#97C11F"/>
<path d="M386.517 169.541L384.59 176.005L384.504 176.992H387.535L390.925 174.114L391.011 173.022L389.625 171.658L392.107 169.677L391.747 167.839L391.066 167.99L388.999 169.413L386.517 169.541Z" fill="#97C11F"/>
<path d="M384.402 163.26L384.449 164.729L383.807 166.96L386.016 167.141L386.157 163.976L384.402 163.26Z" fill="#97C11F"/>
<path d="M383.714 167.493L382.477 171.282L384.082 175.825L385.922 169.188V167.764L383.714 167.493Z" fill="#97C11F"/>
<path d="M360.33 65.1019L361.912 63.987L361.771 62.7365L360.768 62.179L360.909 60.6498H361.771V59.8136L358.035 58.8418L352.436 59.3993L351.864 61.7647L350.572 61.3504L349.711 59.9567L346.978 60.0923L346.688 62.7365L345.396 63.2939L344.675 61.9003L338.927 66.3524L340.078 67.6029L337.925 68.5747L333.038 77.9008L331.315 79.0157L331.456 79.8519L333.179 80.6881L332.748 82.496L329.874 82.3529L329.013 81.3811L327.149 83.4678L325.998 84.304L325.708 86.2551L324.706 86.8126L322.121 87.37L320.829 91.2722L321.691 97.6754L322.693 100.598L323.844 101.713L326.428 101.578L330.164 98.0973L331.597 95.7319L332.028 99.2122L334.471 95.0388L334.612 83.3398L336.601 82.1344L337.196 75.6785L343.226 67.3242L346.1 66.3524L347.393 64.8232L351.7 65.7949L353.853 67.0455L354.574 63.5651L358.168 61.4784L360.33 65.1019Z" fill="#97C11F"/>
<path d="M306.028 100.463L304.595 102.55L305.166 103.386H308.471V104.78L307.61 105.895L308.181 108.818L310.045 112.298L311.478 115.5L313.773 116.336L314.775 118.008L314.634 119.537L313.201 120.374L313.06 121.067L314.062 121.624L313.201 122.739L311.188 123.575L307.312 123.161L301.274 125.805L299.261 124.833L305.01 121.632L304.289 121.217L301.274 120.939L303.138 118.294L303.428 116.065L305.871 115.786L305.44 111.469L302.566 111.334L301.705 110.362L301.846 107.16L300.123 107.296L301.846 101.729L305.01 99.499L306.028 100.463Z" fill="#97C11F"/>
<path d="M299.998 109.795L297.413 110.074L297.272 112.304L298.995 113.42L300.859 113.005L301.58 111.754L299.998 109.795Z" fill="#97C11F"/>
<path d="M300.852 113.624L300.139 118.144L293.819 120.374H291.807L290.374 119.402V118.566L293.537 116.615L292.676 114.942L292.817 112.577L295.55 112.712L296.803 109.88L296.639 112.396L298.761 114.016L300.852 113.624Z" fill="#97C11F"/>
<path d="M346.437 66.9395L347.972 68.303H350.846L352.427 71.2258L352.858 76.2354L348.982 78.8796V81.5237L346.249 85.1472L344.667 85.2828L342.513 88.7631L342.654 92.1079L346.39 94.752L346.1 96.2813L344.667 98.368L342.513 100.176L342.654 106.165L339.349 107.28L338.198 109.645H336.616L335.755 105.472L332.16 100.168L335.113 95.415L335.316 83.6707L337.352 82.5934L337.846 75.8738L343.649 67.8811L346.437 66.9395Z" fill="#97C11F"/>
<path d="M353.539 76.2512L355.16 76.9367L356.163 78.7446L355.16 79.9952L350.133 85.2834L349.271 88.0707L350.422 92.1085L354.299 94.8958L359.467 92.5304L363.634 91.9729L367.51 85.984L364.636 79.4377L361.903 73.1701L362.334 69.1323L360.611 68.8536L360.164 65.9081L357.846 62.2695L355.278 63.9796L354.268 67.9496L351.542 66.3751L347.752 65.4862L346.906 66.4354L348.363 67.701L351.018 67.6558L353.156 70.9779L353.539 76.2512Z" fill="#97C11F"/>
<path d="M362.373 102.189L357.009 101.353L357.126 104.239L362.099 107.163L364.135 106.59L364.018 104.39L362.373 102.189Z" fill="#97C11F"/>
<path d="M353.399 102.45L352.224 102.337L350.11 104.771V105.909L350.815 106.173L352.185 106.21L354.456 104.424L354.77 103.814L353.399 102.45Z" fill="#97C11F"/>
<path d="M356.688 104.696L355.004 104.658L352.694 106.783H350.736L350.854 109.442L349.679 111.528L353.908 111.566L355.122 111.415L356.335 112.824L359.115 112.711L361.778 109.449L361.621 107.513L356.688 104.696Z" fill="#97C11F"/>
<path d="M356.57 113.427L357.745 115.287L357.275 116.771L357.353 117.946L357.784 119.355L360.212 118.029L363.227 118.105L365.341 118.941H370.706L372.272 115.332L373.212 113.969V113.057L369.844 108.5L366.868 107.362L364.441 107.099L362.326 107.746L362.405 109.796L359.468 113.366L356.57 113.427Z" fill="#97C11F"/>
<path d="M357.197 119.807L357.862 120.982L358.019 122.233L357.471 123.446L356.218 125.766L355.161 126.226L353.79 125.653L352.968 125.691L350.971 126.414L348.7 125.766L345.019 123.257L341.417 121.397L339.968 119.272L339.694 114.263L342.513 111.905L346.194 110.73L347.564 110.579L347.016 111.641L347.369 112.056L353.563 112.169L354.894 112.131L357.087 115.363L356.539 116.689L356.774 118.248L357.197 119.807Z" fill="#97C11F"/>
<path d="M307.782 142.587H297.805L295.792 141.713L294.821 141.781L293.647 144.131L294.062 146.549L297.875 146.888L298.361 148.433L296.701 157.435L296.771 159.047L299.473 160.455L302.59 160.659L308.823 159.182L311.87 155.491L311.94 151.732L317.344 147.031L317.618 144.952L312.7 144.884L307.782 142.587Z" fill="#97C11F"/>
<path d="M294.132 147.289L293.646 153.805L292.26 155.011L292.401 155.749L293.372 157.293L292.746 159.176L293.787 159.515L296.214 159.244L296.073 157.361L297.663 148.63L297.318 147.425L294.132 147.289Z" fill="#97C11F"/>
<path d="M317.21 122.776L315.479 123.183L312.018 126.807L310.976 126.874L309.59 125.933L308.69 126.136L308.001 128.215L302.942 128.351L303.083 129.428L306.544 131.643L310.561 134.732L310.491 138.423L308.345 142.046L312.989 144.193L317.703 144.329L319.16 142.717L322.136 142.785L322.966 143.523L325.942 143.319L327.469 141.436L325.527 139.221L325.386 137.813L325.801 136.268L324.83 134.927L323.17 135.394L322.958 134.189L326.631 130.294V127.944L324.203 126.603L322.958 126.4L317.21 122.776Z" fill="#97C11F"/>
<path d="M324.799 114.92L321.251 116.6L322.003 117.256L322.081 118.936L321.329 118.793L320.499 117.549L318.518 120.571L321.564 121.181L322.7 122.334L323.303 122.349L323.702 119.742L325.621 118.966L324.799 114.92Z" fill="#97C11F"/>
<path d="M318.158 121.134L317.657 122.34L323.045 125.761L324.595 126.115L324.65 124.495L323.295 123.033H322.465L321.33 121.789L318.158 121.134Z" fill="#97C11F"/>
<path d="M325.622 114.624L328.418 114.187V112.289L330.759 111.92L332.044 113.163L333.398 113.306L335.513 112.425L337.4 112.937L339.06 114.323L339.287 119.513L340.948 121.638L338.763 121.932L335.137 124.124L335.442 124.854L338.684 127.777L338.457 129.239L335.442 130.7L332.647 130.776L331.965 132.162H330.532L329.851 130.7L327.361 130.113L327.282 127.702L325.168 126.316L325.395 124.561L323.962 122.662L324.338 120.176L326.295 119.295L325.622 114.624Z" fill="#97C11F"/>
<path d="M330.03 102.285L326.78 105.743L326.663 107.995L328.143 111.709L330.46 111.287L330.171 108.251L331.768 106.534L331.736 105.185L330.609 102.376L330.03 102.285Z" fill="#97C11F"/>
<path d="M333.688 108.418L332.959 108.388L332.004 109.232L332.121 110.551L334.385 110.611L334.502 109.119L333.688 108.418Z" fill="#97C11F"/>
<path d="M327.007 130.82L323.593 134.316L323.663 134.671L325.065 134.249L326.326 135.936L328.456 135.213L329.928 136.313L330.531 135.982L332.348 133.239L331.886 132.817L330.093 132.772L329.223 131.061L327.007 130.82Z" fill="#97C11F"/>
<path d="M339.162 127.426H341.488H342.631L344.487 128.699L347.925 125.949L344.589 123.658L341.284 122.121L339.021 122.513L335.951 124.412L339.162 127.426Z" fill="#97C11F"/>
<path d="M344.964 129.127L345.505 129.586L345.575 130.37L351.55 130.242L355.967 128.411L355.897 126.55L355.051 126.911L353.837 126.286L353.093 126.256L351.135 127.009L348.473 126.391L344.964 129.127Z" fill="#97C11F"/>
<path d="M333.053 131.378L332.544 132.395L332.982 133.119L334.807 132.757H336.357L338.041 134.128L341.62 133.503L344.251 131.996L344.925 130.979L344.823 129.668L342.458 127.965L339.286 127.995L339.02 129.728L335.684 131.295L333.053 131.378Z" fill="#97C11F"/>
<path d="M345.669 130.988L344.761 132.359L344.832 134.454L346.28 135.169L350.736 135.298L356.946 130.264L356.978 129.149L356.304 128.825L351.817 130.784L345.669 130.988Z" fill="#97C11F"/>
<path d="M344.15 132.788L342.161 133.934L338.449 134.717L339.193 136.782L341.793 136.812L344.189 134.883L344.15 132.788Z" fill="#97C11F"/>
<path d="M344.792 135.177L342.028 137.369H339.224L338.887 139.267L340.172 139.591L340.814 138.672L341.824 139.523L342.631 142.235L348.167 144.721L348.716 144.119L343.101 138.544L343.672 137.527L349.005 137.331L349.546 135.697L346.069 135.794L344.792 135.177Z" fill="#97C11F"/>
<path d="M344.15 138.023L343.86 138.482L349.115 143.697L351.041 140.969L350.971 139.892L349.287 137.925L344.15 138.023Z" fill="#97C11F"/>
<path d="M326.506 136.547L326.021 137.729L326.154 139.018L328.026 141.119L330.97 141.021L337.47 148.283L341.527 149.413L343.923 151.591L344.495 156.555L345.779 155.832L346.891 153.127L346.617 151.184L348.52 151.018L348.794 149.918L343.43 147.447L338.339 142.634L336.311 139.756L335.818 137.021L338.41 136.426L337.744 134.626L336.154 133.338L334.784 133.277L332.873 133.782L331.072 136.208L329.983 136.901L328.3 135.906L326.506 136.547Z" fill="#97C11F"/>
<path d="M360.415 118.597L358.144 119.825L358.708 122.145L356.609 126.401L356.625 128.277L357.612 128.88L363.939 129.181L365.709 127.772L367.604 128.382L370.322 131.87L368.333 135.306L370.698 135.968L373.791 132.541L375.561 132.85L377.205 133.95L375.757 135.788L377.714 138.726H379.798L380.87 136.767L383.079 136.338L383.142 134.748L379.038 134.138L379.163 132.428H383.142L387.433 129.121L389.328 127.531L389.641 122.514L381.184 121.783L377.714 117.075L375.318 116.284L372.413 116.405L371.105 119.516L365.153 119.591L363.219 118.732L360.415 118.597Z" fill="#97C11F"/>
<path d="M364.473 129.565L366.9 133.16L366.697 135.195L367.566 135.232L369.625 131.879L367.151 128.925L365.749 128.367L364.473 129.565Z" fill="#97C11F"/>
<path d="M357.761 129.479L357.557 130.594L353.023 134.225L356.813 139.574L359.241 141.209H363.611L365.052 140.049L366.986 139.808L368.427 140.644L370.98 137.849L370.487 136.448L367.895 135.807L366.125 135.725L366.211 133.329L363.861 129.773L357.761 129.479Z" fill="#97C11F"/>
<path d="M352.061 144.282L352.026 143.576L350.992 142.18L349.319 144.457L349.648 145.413L351.011 145.655L352.061 144.282Z" fill="#97C11F"/>
<path d="M352.569 134.708L350.963 135.869H350.18L349.648 137.465L351.542 139.583L351.668 141.263L351.4 141.626L352.682 143.358L352.726 144.276L353.648 145.135L356.655 144.254L356.404 140.14L352.569 134.708Z" fill="#97C11F"/>
<path d="M357.181 140.622L357.307 144.374L358.622 147.011L363.564 147.094L365.788 145.58L367.973 144.743L367.44 142.347L367.934 141.066L366.822 140.509L365.294 140.629L364.096 141.79L359.069 141.827L357.181 140.622Z" fill="#97C11F"/>
<path d="M351.371 146.175V149.649L352.405 151.525L353.149 151.442L354.425 149.204L353.681 148.202L353.391 145.723L352.405 144.841L351.371 146.175Z" fill="#97C11F"/>
<path d="M356.774 144.855L354.135 145.692L354.26 147.847L354.879 148.608L358.011 147.207L356.774 144.855Z" fill="#97C11F"/>
<path d="M353.477 152.081L353.391 153.082L357.017 154.838L358.747 155.478L357.839 156.397L355.818 156.593L355.529 157.474L356.226 158.989L358.489 160.149L359.476 160.231L359.601 157.633L361.081 155.915L357.04 151.32L357.573 149.76L358.52 149.723L359.961 150.838L360.87 150.401L361.159 148.841L365.404 148.879L365.568 146.483L363.798 147.681L358.606 147.561L355.231 149.241L353.477 152.081Z" fill="#97C11F"/>
<path d="M366.249 146.13L366.124 148.805L368.552 148.089L369.664 147.373L369.335 146.213L368.184 145.331L366.249 146.13Z" fill="#97C11F"/>
<g filter="url(#filter0_d)">
<g clip-path="url(#clip0)">
<path d="M396.005 113C409.263 113 420.01 102.255 420.01 89C420.01 75.7452 409.263 65 396.005 65C382.747 65 372 75.7452 372 89C372 102.255 382.747 113 396.005 113Z" fill="white"/>
<path d="M418.517 97.3543C419.482 94.7538 420.01 91.9411 420.01 89.0048C420.01 86.0685 419.482 83.2558 418.517 80.6553H373.493C372.528 83.2558 372 86.0685 372 89.0048C372 91.9411 372.528 94.7538 373.493 97.3543L396.005 99.4417L418.517 97.3543Z" fill="#0052B4"/>
<path d="M396.005 113.004C406.326 113.004 415.125 106.49 418.517 97.3486H373.493C376.885 106.49 385.684 113.004 396.005 113.004Z" fill="#E13F0D"/>
</g>
</g>
<g filter="url(#filter1_d)">
<g clip-path="url(#clip1)">
<path d="M363.005 338C376.263 338 387.01 327.255 387.01 314C387.01 300.745 376.263 290 363.005 290C349.747 290 339 300.745 339 314C339 327.255 349.747 338 363.005 338Z" fill="white"/>
<path d="M346.031 330.972C336.656 321.6 336.656 306.404 346.031 297.031C346.03 297.032 359.874 314.002 359.874 314.002L346.031 330.972Z" fill="black"/>
<path d="M359.874 314.003L342.184 302.051C341.635 303.004 341.152 303.999 340.736 305.029L349.692 314.003L340.736 322.977C341.152 324.006 341.635 325.001 342.183 325.953L359.874 314.003Z" fill="#FFDA44"/>
<path d="M386.807 310.871H359.873L346.031 297.031C344.539 298.523 343.243 300.209 342.184 302.05L354.115 314.001L342.183 325.952C343.242 327.793 344.539 329.48 346.031 330.972L359.873 317.132H386.807C386.94 316.107 387.01 315.062 387.01 314.001C387.01 312.941 386.94 311.896 386.807 310.871Z" fill="#749717"/>
<path d="M348.39 333.042C352.438 336.153 357.505 338.004 363.005 338.004C374.096 338.004 383.428 330.482 386.183 320.262H361.17L348.39 333.042Z" fill="#0052B4"/>
<path d="M386.183 307.743C383.428 297.522 374.096 290 363.005 290C357.505 290 352.438 291.851 348.39 294.963L361.17 307.743H386.183Z" fill="#E13F0D"/>
</g>
</g>
<g filter="url(#filter2_d)">
<g clip-path="url(#clip2)">
<path d="M102.462 216.132C115.716 216.132 126.462 205.387 126.462 192.132C126.462 178.877 115.716 168.132 102.462 168.132C89.2067 168.132 78.4615 178.877 78.4615 192.132C78.4615 205.387 89.2067 216.132 102.462 216.132Z" fill="white"/>
<path d="M126.462 192.132C126.462 182.617 120.924 174.396 112.897 170.514V213.751C120.924 209.869 126.462 201.647 126.462 192.132Z" fill="#E13F0D"/>
<path d="M78.4615 192.132C78.4615 201.647 83.9989 209.869 92.0268 213.751V170.514C83.9989 174.396 78.4615 182.617 78.4615 192.132Z" fill="#749717"/>
<path d="M96.2007 192.132C96.2007 195.59 99.0038 198.393 102.462 198.393C105.919 198.393 108.722 195.59 108.722 192.132V190.045H96.2007V192.132Z" fill="#749717"/>
<path d="M110.809 187.957H104.548C104.548 186.805 103.614 185.87 102.462 185.87C101.309 185.87 100.375 186.805 100.375 187.957H94.1136C94.1136 189.11 95.1176 190.044 96.2701 190.044H96.2006C96.2006 191.197 97.1349 192.131 98.2876 192.131C98.2876 193.284 99.2219 194.218 100.375 194.218H104.548C105.701 194.218 106.635 193.284 106.635 192.131C107.788 192.131 108.722 191.197 108.722 190.044H108.653C109.806 190.044 110.809 189.11 110.809 187.957Z" fill="#FFDA44"/>
</g>
</g>
<defs>
<filter id="filter0_d" x="368" y="65" width="56.01" height="56" filterUnits="userSpaceOnUse" color-interpolation-filters="sRGB">
<feFlood flood-opacity="0" result="BackgroundImageFix"/>
<feColorMatrix in="SourceAlpha" type="matrix" values="0 0 0 0 0 0 0 0 0 0 0 0 0 0 0 0 0 0 127 0"/>
<feOffset dy="4"/>
<feGaussianBlur stdDeviation="2"/>
<feColorMatrix type="matrix" values="0 0 0 0 0 0 0 0 0 0 0 0 0 0 0 0 0 0 0.1 0"/>
<feBlend mode="normal" in2="BackgroundImageFix" result="effect1_dropShadow"/>
<feBlend mode="normal" in="SourceGraphic" in2="effect1_dropShadow" result="shape"/>
</filter>
<filter id="filter1_d" x="335" y="290" width="56.01" height="56" filterUnits="userSpaceOnUse" color-interpolation-filters="sRGB">
<feFlood flood-opacity="0" result="BackgroundImageFix"/>
<feColorMatrix in="SourceAlpha" type="matrix" values="0 0 0 0 0 0 0 0 0 0 0 0 0 0 0 0 0 0 127 0"/>
<feOffset dy="4"/>
<feGaussianBlur stdDeviation="2"/>
<feColorMatrix type="matrix" values="0 0 0 0 0 0 0 0 0 0 0 0 0 0 0 0 0 0 0.1 0"/>
<feBlend mode="normal" in2="BackgroundImageFix" result="effect1_dropShadow"/>
<feBlend mode="normal" in="SourceGraphic" in2="effect1_dropShadow" result="shape"/>
</filter>
<filter id="filter2_d" x="74.4615" y="168.132" width="56" height="56" filterUnits="userSpaceOnUse" color-interpolation-filters="sRGB">
<feFlood flood-opacity="0" result="BackgroundImageFix"/>
<feColorMatrix in="SourceAlpha" type="matrix" values="0 0 0 0 0 0 0 0 0 0 0 0 0 0 0 0 0 0 127 0"/>
<feOffset dy="4"/>
<feGaussianBlur stdDeviation="2"/>
<feColorMatrix type="matrix" values="0 0 0 0 0 0 0 0 0 0 0 0 0 0 0 0 0 0 0.1 0"/>
<feBlend mode="normal" in2="BackgroundImageFix" result="effect1_dropShadow"/>
<feBlend mode="normal" in="SourceGraphic" in2="effect1_dropShadow" result="shape"/>
</filter>
<clipPath id="clip0">
<rect x="372" y="65" width="48.01" height="48" fill="white"/>
</clipPath>
<clipPath id="clip1">
<rect x="339" y="290" width="48.01" height="48" fill="white"/>
</clipPath>
<clipPath id="clip2">
<rect x="78.4615" y="168.132" width="48" height="48" fill="white"/>
</clipPath>
</defs>
</svg>
